<svg xmlns="http://www.w3.org/2000/svg" viewBox="0 0 100 100" width="100" height="100">
  <!-- Donate Icon -->
  <circle cx="50" cy="50" r="48" fill="#FF5995" opacity="0.1" />
  
  <!-- Heart Symbol -->
  <path d="M50 75 C30 60 20 45 25 35 C30 25 40 25 50 40 C60 25 70 25 75 35 C80 45 70 60 50 75 Z" fill="#FF5995" opacity="0.7" />
  <path d="M50 75 C30 60 20 45 25 35 C30 25 40 25 50 40 C60 25 70 25 75 35 C80 45 70 60 50 75 Z" fill="none" stroke="#FF5995" stroke-width="2" />
  
  <!-- Dollar Sign -->
  <path d="M50 45 L50 60" stroke="white" stroke-width="3" />
  <path d="M45 50 L50 45 L55 50" stroke="white" stroke-width="3" />
  
  <!-- Coins -->
  <circle cx="30" cy="65" r="10" fill="#FFD700" stroke="#FF5995" stroke-width="1" />
  <circle cx="70" cy="65" r="10" fill="#FFD700" stroke="#FF5995" stroke-width="1" />
  <text x="30" y="69" font-family="Arial, sans-serif" font-size="12" font-weight="bold" text-anchor="middle" fill="#FF5995">$</text>
  <text x="70" y="69" font-family="Arial, sans-serif" font-size="12" font-weight="bold" text-anchor="middle" fill="#FF5995">$</text>
</svg>