<svg xmlns="http://www.w3.org/2000/svg" viewBox="0 0 100 100" width="100" height="100">
  <!-- Empowerment Icon -->
  <circle cx="50" cy="50" r="48" fill="#FFDD57" opacity="0.1" />
  
  <!-- Raised Fist Symbol -->
  <path d="M40 80 C30 80 30 65 30 60 L30 40 C30 35 35 35 35 40 L35 50 L40 50 L40 35 C40 30 45 30 45 35 L45 50 L50 50 L50 30 C50 25 55 25 55 30 L55 50 L60 50 L60 35 C60 30 65 30 65 35 L65 55 C65 65 55 80 40 80 Z" fill="#FFDD57" opacity="0.8" />
  <path d="M40 80 C30 80 30 65 30 60 L30 40 C30 35 35 35 35 40 L35 50 L40 50 L40 35 C40 30 45 30 45 35 L45 50 L50 50 L50 30 C50 25 55 25 55 30 L55 50 L60 50 L60 35 C60 30 65 30 65 35 L65 55 C65 65 55 80 40 80 Z" fill="none" stroke="#FFDD57" stroke-width="2" />
  
  <!-- Radiating Lines (Empowerment) -->
  <path d="M70 30 L80 20" stroke="#FFDD57" stroke-width="2" />
  <path d="M75 40 L90 35" stroke="#FFDD57" stroke-width="2" />
  <path d="M75 55 L90 60" stroke="#FFDD57" stroke-width="2" />
  <path d="M70 70 L80 80" stroke="#FFDD57" stroke-width="2" />
  
  <!-- Stars (Achievement) -->
  <path d="M30 25 L27 15 L30 15 L32 10 L34 15 L37 15 L34 20 L35 25 L32 22 L29 25 Z" fill="#FFDD57" />
  <path d="M20 40 L18 35 L20 35 L21 30 L22 35 L24 35 L22 37 L23 40 L21 38 L19 40 Z" fill="#FFDD57" />
</svg>