<svg xmlns="http://www.w3.org/2000/svg" viewBox="0 0 100 100" width="100" height="100">
  <!-- Health Icon -->
  <circle cx="50" cy="50" r="48" fill="#FF5995" opacity="0.1" />
  
  <!-- Heart -->
  <path d="M50 75 C25 55 20 40 25 30 C30 20 40 20 50 35 C60 20 70 20 75 30 C80 40 75 55 50 75 Z" fill="#FF5995" opacity="0.7" />
  <path d="M50 75 C25 55 20 40 25 30 C30 20 40 20 50 35 C60 20 70 20 75 30 C80 40 75 55 50 75 Z" fill="none" stroke="#FF5995" stroke-width="2" />
  
  <!-- Health Cross -->
  <path d="M50 40 L50 60 M40 50 L60 50" stroke="white" stroke-width="3" />
  
  <!-- Heartbeat Line -->
  <path d="M20 50 L35 50 L40 35 L50 65 L60 50 L80 50" fill="none" stroke="#FF5995" stroke-width="2" />
</svg>