<svg xmlns="http://www.w3.org/2000/svg" xmlns:xlink="http://www.w3.org/1999/xlink" width="600" zoomAndPan="magnify" viewBox="0 0 450 449.999984" height="600" preserveAspectRatio="xMidYMid meet" version="1.2"><defs><clipPath id="d251012e90"><path d="M 80 16.027344 L 221 16.027344 L 221 178 L 80 178 Z M 80 16.027344 "/></clipPath><clipPath id="3709b8305b"><path d="M 229 16.027344 L 369 16.027344 L 369 178 L 229 178 Z M 229 16.027344 "/></clipPath><clipPath id="f870aeebe1"><path d="M 80 272 L 221 272 L 221 433.777344 L 80 433.777344 Z M 80 272 "/></clipPath><clipPath id="63976c9e1e"><path d="M 229 272 L 370 272 L 370 433.777344 L 229 433.777344 Z M 229 272 "/></clipPath><clipPath id="256c663a3f"><path d="M 350 233 L 370 233 L 370 252.726562 L 350 252.726562 Z M 350 233 "/></clipPath><clipPath id="ede52e3355"><path d="M 345.4375 196 L 360 196 L 360 211 L 345.4375 211 Z M 345.4375 196 "/></clipPath><clipPath id="603f3e97b3"><path d="M 388 238 L 402.4375 238 L 402.4375 252.726562 L 388 252.726562 Z M 388 238 "/></clipPath><clipPath id="5e9d8fd986"><path d="M 268.550781 329 L 319 329 L 319 379.367188 L 268.550781 379.367188 Z M 268.550781 329 "/></clipPath><clipPath id="3fea9e727e"><path d="M 301 319.367188 L 328.550781 319.367188 L 328.550781 347 L 301 347 Z M 301 319.367188 "/></clipPath><clipPath id="ac4c30928b"><path d="M 120.761719 318.550781 L 181.511719 318.550781 L 181.511719 379.300781 L 120.761719 379.300781 Z M 120.761719 318.550781 "/></clipPath><clipPath id="4a9382b177"><path d="M 120.761719 64.601562 L 184 64.601562 L 184 128 L 120.761719 128 Z M 120.761719 64.601562 "/></clipPath><clipPath id="0b1f48eb28"><path d="M 297 64.601562 L 303 64.601562 L 303 76 L 297 76 Z M 297 64.601562 "/></clipPath><clipPath id="7c946acec8"><path d="M 297 117 L 303 117 L 303 128.351562 L 297 128.351562 Z M 297 117 "/></clipPath><clipPath id="9124bd8816"><path d="M 268.550781 93 L 280 93 L 280 99 L 268.550781 99 Z M 268.550781 93 "/></clipPath><clipPath id="9df96c7318"><path d="M 41.128906 195 L 112.378906 195 L 112.378906 200 L 41.128906 200 Z M 41.128906 195 "/></clipPath></defs><g id="ec724c116b"><g clip-rule="nonzero" clip-path="url(#d251012e90)"><path style=" stroke:none;fill-rule:nonzero;fill:#7779ec;fill-opacity:1;" d="M 220.570312 137.136719 L 220.570312 56.394531 L 150.671875 16.027344 L 80.773438 56.394531 L 80.773438 137.136719 L 150.671875 177.503906 Z M 220.570312 137.136719 "/><path style=" stroke:none;fill-rule:nonzero;fill:#ffffff;fill-opacity:0.302;" d="M 220.570312 137.136719 L 220.570312 56.394531 L 150.671875 16.027344 L 80.773438 56.394531 L 80.773438 137.136719 L 150.671875 177.503906 Z M 220.570312 137.136719 "/></g><path style=" stroke:none;fill-rule:nonzero;fill:#eb4026;fill-opacity:1;" d="M 76.546875 144.40625 L 146.070312 184.558594 L 146.070312 264.867188 L 76.546875 305.019531 L 7.023438 264.867188 L 7.023438 184.558594 Z M 76.546875 144.40625 "/><path style=" stroke:none;fill-rule:nonzero;fill:#403491;fill-opacity:1;" d="M 442.953125 265.082031 L 442.953125 184.34375 L 373.050781 143.972656 L 303.152344 184.34375 L 303.152344 265.082031 L 373.050781 305.453125 Z M 442.953125 265.082031 "/><g clip-rule="nonzero" clip-path="url(#3709b8305b)"><path style=" stroke:none;fill-rule:nonzero;fill:#7779ec;fill-opacity:1;" d="M 368.824219 137.136719 L 368.824219 56.394531 L 298.925781 16.027344 L 229.027344 56.394531 L 229.027344 137.136719 L 298.925781 177.503906 Z M 368.824219 137.136719 "/></g><g clip-rule="nonzero" clip-path="url(#f870aeebe1)"><path style=" stroke:none;fill-rule:nonzero;fill:#ef8534;fill-opacity:1;" d="M 220.660156 393.40625 L 220.660156 312.664062 L 150.761719 272.296875 L 80.863281 312.664062 L 80.863281 393.40625 L 150.761719 433.777344 Z M 220.660156 393.40625 "/></g><g clip-rule="nonzero" clip-path="url(#63976c9e1e)"><path style=" stroke:none;fill-rule:nonzero;fill:#f1ba40;fill-opacity:1;" d="M 369.097656 393.40625 L 369.097656 312.664062 L 299.195312 272.296875 L 229.296875 312.664062 L 229.296875 393.40625 L 299.195312 433.777344 Z M 369.097656 393.40625 "/></g><g clip-rule="nonzero" clip-path="url(#256c663a3f)"><path style=" stroke:none;fill-rule:nonzero;fill:#ffffff;fill-opacity:1;" d="M 359.804688 252.597656 C 354.609375 252.597656 350.382812 248.371094 350.382812 243.175781 C 350.382812 237.980469 354.609375 233.757812 359.804688 233.757812 C 364.996094 233.757812 369.222656 237.980469 369.222656 243.175781 C 369.222656 248.371094 364.996094 252.597656 359.804688 252.597656 Z M 359.804688 238.46875 C 357.207031 238.46875 355.09375 240.578125 355.09375 243.175781 C 355.09375 245.773438 357.207031 247.886719 359.804688 247.886719 C 362.398438 247.886719 364.511719 245.773438 364.511719 243.175781 C 364.511719 240.578125 362.398438 238.46875 359.804688 238.46875 Z M 359.804688 238.46875 "/></g><path style=" stroke:none;fill-rule:nonzero;fill:#ffffff;fill-opacity:1;" d="M 359.804688 238.46875 C 358.503906 238.46875 357.449219 237.414062 357.449219 236.113281 L 357.449219 229.046875 C 357.449219 223.851562 361.671875 219.628906 366.867188 219.628906 L 380.996094 219.628906 C 383.59375 219.628906 385.707031 217.515625 385.707031 214.917969 L 385.707031 199.023438 C 385.707031 197.722656 386.761719 196.667969 388.0625 196.667969 C 389.363281 196.667969 390.417969 197.722656 390.417969 199.023438 L 390.417969 214.917969 C 390.417969 220.113281 386.191406 224.339844 380.996094 224.339844 L 366.867188 224.339844 C 364.269531 224.339844 362.15625 226.449219 362.15625 229.046875 L 362.15625 236.113281 C 362.15625 237.414062 361.101562 238.46875 359.804688 238.46875 Z M 359.804688 238.46875 "/><path style=" stroke:none;fill-rule:nonzero;fill:#ffffff;fill-opacity:1;" d="M 395.125 207.855469 C 394.523438 207.855469 393.921875 207.625 393.460938 207.164062 L 388.0625 201.765625 L 382.660156 207.164062 C 381.742188 208.085938 380.253906 208.085938 379.332031 207.164062 C 378.410156 206.242188 378.410156 204.753906 379.332031 203.835938 L 386.398438 196.769531 C 387.316406 195.847656 388.804688 195.847656 389.726562 196.769531 L 396.792969 203.835938 C 397.710938 204.753906 397.710938 206.242188 396.792969 207.164062 C 396.332031 207.625 395.730469 207.855469 395.125 207.855469 Z M 395.125 207.855469 "/><g clip-rule="nonzero" clip-path="url(#ede52e3355)"><path style=" stroke:none;fill-rule:nonzero;fill:#ffffff;fill-opacity:1;" d="M 357.449219 210.207031 C 356.84375 210.207031 356.242188 209.976562 355.78125 209.519531 L 346.363281 200.097656 C 345.441406 199.179688 345.441406 197.691406 346.363281 196.769531 C 347.285156 195.847656 348.773438 195.847656 349.695312 196.769531 L 359.113281 206.1875 C 360.035156 207.109375 360.035156 208.597656 359.113281 209.519531 C 358.652344 209.976562 358.050781 210.207031 357.449219 210.207031 Z M 357.449219 210.207031 "/><path style=" stroke:none;fill-rule:nonzero;fill:#ffffff;fill-opacity:1;" d="M 348.027344 210.207031 C 347.425781 210.207031 346.824219 209.976562 346.363281 209.519531 C 345.441406 208.597656 345.441406 207.109375 346.363281 206.1875 L 355.78125 196.769531 C 356.703125 195.847656 358.191406 195.847656 359.113281 196.769531 C 360.035156 197.691406 360.035156 199.179688 359.113281 200.097656 L 349.695312 209.519531 C 349.234375 209.976562 348.632812 210.207031 348.027344 210.207031 Z M 348.027344 210.207031 "/></g><g clip-rule="nonzero" clip-path="url(#603f3e97b3)"><path style=" stroke:none;fill-rule:nonzero;fill:#ffffff;fill-opacity:1;" d="M 399.835938 252.597656 C 399.234375 252.597656 398.628906 252.367188 398.171875 251.90625 L 388.75 242.488281 C 387.832031 241.566406 387.832031 240.078125 388.75 239.15625 C 389.671875 238.238281 391.160156 238.238281 392.082031 239.15625 L 401.5 248.578125 C 402.421875 249.496094 402.421875 250.984375 401.5 251.90625 C 401.042969 252.367188 400.4375 252.597656 399.835938 252.597656 Z M 399.835938 252.597656 "/><path style=" stroke:none;fill-rule:nonzero;fill:#ffffff;fill-opacity:1;" d="M 390.417969 252.597656 C 389.8125 252.597656 389.210938 252.367188 388.75 251.90625 C 387.832031 250.984375 387.832031 249.496094 388.75 248.578125 L 398.171875 239.15625 C 399.09375 238.238281 400.582031 238.238281 401.5 239.15625 C 402.421875 240.078125 402.421875 241.566406 401.5 242.488281 L 392.082031 251.90625 C 391.621094 252.367188 391.019531 252.597656 390.417969 252.597656 Z M 390.417969 252.597656 "/></g><g clip-rule="nonzero" clip-path="url(#5e9d8fd986)"><path style=" stroke:none;fill-rule:nonzero;fill:#ffffff;fill-opacity:1;" d="M 293.550781 379.367188 C 307.335938 379.367188 318.550781 368.152344 318.550781 354.367188 C 318.550781 352.988281 317.429688 351.867188 316.050781 351.867188 L 296.050781 351.867188 L 296.050781 331.867188 C 296.050781 330.488281 294.929688 329.367188 293.550781 329.367188 C 279.765625 329.367188 268.550781 340.582031 268.550781 354.367188 C 268.550781 368.152344 279.765625 379.367188 293.550781 379.367188 Z M 291.050781 334.523438 L 291.050781 354.367188 C 291.050781 355.746094 292.167969 356.867188 293.550781 356.867188 L 313.394531 356.867188 C 312.160156 366.71875 303.730469 374.367188 293.550781 374.367188 C 282.523438 374.367188 273.550781 365.394531 273.550781 354.367188 C 273.550781 344.1875 281.195312 335.757812 291.050781 334.523438 Z M 291.050781 334.523438 "/></g><g clip-rule="nonzero" clip-path="url(#3fea9e727e)"><path style=" stroke:none;fill-rule:nonzero;fill:#ffffff;fill-opacity:1;" d="M 303.550781 319.367188 C 302.167969 319.367188 301.050781 320.488281 301.050781 321.867188 L 301.050781 344.367188 C 301.050781 345.746094 302.167969 346.867188 303.550781 346.867188 L 326.050781 346.867188 C 327.429688 346.867188 328.550781 345.746094 328.550781 344.367188 C 328.550781 330.582031 317.335938 319.367188 303.550781 319.367188 Z M 306.050781 341.867188 L 306.050781 324.523438 C 315.082031 325.65625 322.261719 332.835938 323.394531 341.867188 Z M 306.050781 341.867188 "/></g><g clip-rule="nonzero" clip-path="url(#ac4c30928b)"><path style=" stroke:none;fill-rule:nonzero;fill:#ffffff;fill-opacity:1;" d="M 151.136719 379.300781 C 146.984375 379.300781 143.125 377.242188 140.800781 373.921875 C 136.78125 374.621094 132.582031 373.335938 129.65625 370.40625 C 126.730469 367.476562 125.449219 363.277344 126.140625 359.257812 C 122.820312 356.9375 120.761719 353.074219 120.761719 348.925781 C 120.761719 344.769531 122.820312 340.910156 126.140625 338.589844 C 125.449219 334.570312 126.726562 330.367188 129.65625 327.441406 C 132.582031 324.515625 136.78125 323.238281 140.804688 323.925781 C 143.125 320.605469 146.984375 318.550781 151.136719 318.550781 C 155.289062 318.550781 159.148438 320.605469 161.472656 323.925781 C 165.484375 323.230469 169.695312 324.511719 172.621094 327.441406 C 175.546875 330.371094 176.828125 334.570312 176.136719 338.589844 C 179.457031 340.910156 181.511719 344.769531 181.511719 348.925781 C 181.511719 353.074219 179.453125 356.9375 176.136719 359.257812 C 176.828125 363.277344 175.546875 367.476562 172.621094 370.40625 C 169.691406 373.335938 165.496094 374.617188 161.472656 373.921875 C 159.148438 377.242188 155.292969 379.300781 151.136719 379.300781 Z M 142.023438 368.464844 C 142.984375 368.464844 143.894531 369.011719 144.316406 369.925781 C 145.539062 372.546875 148.21875 374.238281 151.136719 374.238281 C 154.054688 374.238281 156.734375 372.546875 157.953125 369.925781 C 158.503906 368.746094 159.863281 368.175781 161.09375 368.609375 C 163.859375 369.585938 166.976562 368.886719 169.039062 366.824219 C 171.101562 364.761719 171.800781 361.644531 170.824219 358.882812 C 170.386719 357.652344 170.957031 356.292969 172.140625 355.742188 C 174.757812 354.519531 176.449219 351.84375 176.449219 348.925781 C 176.449219 346.003906 174.757812 343.328125 172.140625 342.105469 C 170.957031 341.554688 170.390625 340.195312 170.824219 338.964844 C 171.800781 336.203125 171.101562 333.082031 169.039062 331.019531 C 166.976562 328.953125 163.855469 328.257812 161.09375 329.234375 C 159.859375 329.667969 158.507812 329.101562 157.953125 327.917969 C 156.734375 325.304688 154.054688 323.613281 151.136719 323.613281 C 148.21875 323.613281 145.539062 325.304688 144.320312 327.921875 C 143.765625 329.105469 142.414062 329.675781 141.183594 329.238281 C 138.414062 328.257812 135.296875 328.957031 133.234375 331.023438 C 131.171875 333.089844 130.472656 336.203125 131.453125 338.964844 C 131.886719 340.195312 131.316406 341.554688 130.136719 342.105469 C 127.515625 343.328125 125.824219 346.003906 125.824219 348.925781 C 125.824219 351.84375 127.519531 354.519531 130.136719 355.742188 C 131.316406 356.296875 131.882812 357.65625 131.453125 358.886719 C 130.472656 361.648438 131.171875 364.765625 133.234375 366.828125 C 135.292969 368.890625 138.414062 369.59375 141.183594 368.613281 C 141.460938 368.511719 141.742188 368.464844 142.023438 368.464844 Z M 142.023438 368.464844 "/></g><path style=" stroke:none;fill-rule:nonzero;fill:#ffffff;fill-opacity:1;" d="M 153.667969 361.582031 L 143.542969 361.582031 C 142.144531 361.582031 141.011719 360.445312 141.011719 359.050781 C 141.011719 357.652344 142.144531 356.519531 143.542969 356.519531 L 153.667969 356.519531 C 155.066406 356.519531 156.199219 355.382812 156.199219 353.988281 C 156.199219 352.59375 155.066406 351.457031 153.667969 351.457031 L 148.605469 351.457031 C 144.417969 351.457031 141.011719 348.046875 141.011719 343.863281 C 141.011719 339.675781 144.417969 336.269531 148.605469 336.269531 L 158.730469 336.269531 C 160.132812 336.269531 161.261719 337.402344 161.261719 338.800781 C 161.261719 340.195312 160.132812 341.332031 158.730469 341.332031 L 148.605469 341.332031 C 147.207031 341.332031 146.074219 342.46875 146.074219 343.863281 C 146.074219 345.257812 147.207031 346.394531 148.605469 346.394531 L 153.667969 346.394531 C 157.855469 346.394531 161.261719 349.800781 161.261719 353.988281 C 161.261719 358.171875 157.855469 361.582031 153.667969 361.582031 Z M 153.667969 361.582031 "/><path style=" stroke:none;fill-rule:nonzero;fill:#ffffff;fill-opacity:1;" d="M 151.136719 341.332031 C 149.738281 341.332031 148.605469 340.195312 148.605469 338.800781 L 148.605469 333.738281 C 148.605469 332.339844 149.738281 331.207031 151.136719 331.207031 C 152.539062 331.207031 153.667969 332.339844 153.667969 333.738281 L 153.667969 338.800781 C 153.667969 340.195312 152.539062 341.332031 151.136719 341.332031 Z M 151.136719 341.332031 "/><path style=" stroke:none;fill-rule:nonzero;fill:#ffffff;fill-opacity:1;" d="M 151.136719 366.644531 C 149.738281 366.644531 148.605469 365.507812 148.605469 364.113281 L 148.605469 359.050781 C 148.605469 357.652344 149.738281 356.519531 151.136719 356.519531 C 152.539062 356.519531 153.667969 357.652344 153.667969 359.050781 L 153.667969 364.113281 C 153.667969 365.507812 152.539062 366.644531 151.136719 366.644531 Z M 151.136719 366.644531 "/><g clip-rule="nonzero" clip-path="url(#4a9382b177)"><path style=" stroke:none;fill-rule:nonzero;fill:#ffffff;fill-opacity:1;" d="M 183.160156 123.410156 L 167.449219 107.699219 C 171.167969 103.160156 173.40625 97.363281 173.40625 91.054688 C 173.40625 76.542969 161.597656 64.734375 147.082031 64.734375 C 132.570312 64.734375 120.761719 76.542969 120.761719 91.054688 C 120.761719 105.570312 132.570312 117.375 147.082031 117.375 C 153.390625 117.375 159.1875 115.140625 163.730469 111.421875 L 179.441406 127.132812 C 179.953125 127.648438 180.625 127.90625 181.300781 127.90625 C 181.972656 127.90625 182.648438 127.648438 183.160156 127.132812 C 184.191406 126.105469 184.191406 124.441406 183.160156 123.410156 Z M 126.027344 91.054688 C 126.027344 79.445312 135.472656 70 147.082031 70 C 158.695312 70 168.140625 79.445312 168.140625 91.054688 C 168.140625 102.664062 158.695312 112.113281 147.082031 112.113281 C 135.472656 112.113281 126.027344 102.664062 126.027344 91.054688 Z M 126.027344 91.054688 "/></g><path style=" stroke:none;fill-rule:nonzero;fill:#ffffff;fill-opacity:1;" d="M 301.585938 106.890625 L 294.980469 106.890625 C 293.519531 106.890625 292.335938 105.707031 292.335938 104.25 C 292.335938 102.789062 293.519531 101.605469 294.980469 101.605469 L 301.585938 101.605469 C 302.316406 101.605469 302.910156 101.015625 302.910156 100.285156 C 302.910156 99.554688 302.316406 98.960938 301.585938 98.960938 L 298.945312 98.960938 C 295.300781 98.960938 292.335938 95.996094 292.335938 92.355469 C 292.335938 88.714844 295.300781 85.746094 298.945312 85.746094 L 305.550781 85.746094 C 307.015625 85.746094 308.195312 86.929688 308.195312 88.390625 C 308.195312 89.847656 307.015625 91.035156 305.550781 91.035156 L 298.945312 91.035156 C 298.214844 91.035156 297.621094 91.625 297.621094 92.355469 C 297.621094 93.085938 298.214844 93.675781 298.945312 93.675781 L 301.585938 93.675781 C 305.230469 93.675781 308.195312 96.640625 308.195312 100.285156 C 308.195312 103.925781 305.230469 106.890625 301.585938 106.890625 Z M 301.585938 106.890625 "/><g clip-rule="nonzero" clip-path="url(#0b1f48eb28)"><path style=" stroke:none;fill-rule:nonzero;fill:#ffffff;fill-opacity:1;" d="M 300.265625 75.175781 C 298.808594 75.175781 297.621094 73.992188 297.621094 72.53125 L 297.621094 67.246094 C 297.621094 65.785156 298.808594 64.601562 300.265625 64.601562 C 301.726562 64.601562 302.910156 65.785156 302.910156 67.246094 L 302.910156 72.53125 C 302.910156 73.992188 301.726562 75.175781 300.265625 75.175781 Z M 300.265625 75.175781 "/></g><path style=" stroke:none;fill-rule:nonzero;fill:#ffffff;fill-opacity:1;" d="M 300.265625 91.035156 C 298.808594 91.035156 297.621094 89.847656 297.621094 88.390625 L 297.621094 83.105469 C 297.621094 81.644531 298.808594 80.460938 300.265625 80.460938 C 301.726562 80.460938 302.910156 81.644531 302.910156 83.105469 L 302.910156 88.390625 C 302.910156 89.847656 301.726562 91.035156 300.265625 91.035156 Z M 300.265625 91.035156 "/><path style=" stroke:none;fill-rule:nonzero;fill:#ffffff;fill-opacity:1;" d="M 300.265625 112.179688 C 298.808594 112.179688 297.621094 110.992188 297.621094 109.535156 L 297.621094 104.25 C 297.621094 102.789062 298.808594 101.605469 300.265625 101.605469 C 301.726562 101.605469 302.910156 102.789062 302.910156 104.25 L 302.910156 109.535156 C 302.910156 110.992188 301.726562 112.179688 300.265625 112.179688 Z M 300.265625 112.179688 "/><g clip-rule="nonzero" clip-path="url(#7c946acec8)"><path style=" stroke:none;fill-rule:nonzero;fill:#ffffff;fill-opacity:1;" d="M 300.265625 128.035156 C 298.808594 128.035156 297.621094 126.851562 297.621094 125.394531 L 297.621094 120.105469 C 297.621094 118.648438 298.808594 117.464844 300.265625 117.464844 C 301.726562 117.464844 302.910156 118.648438 302.910156 120.105469 L 302.910156 125.394531 C 302.910156 126.851562 301.726562 128.035156 300.265625 128.035156 Z M 300.265625 128.035156 "/></g><path style=" stroke:none;fill-rule:nonzero;fill:#ffffff;fill-opacity:1;" d="M 329.339844 98.960938 L 324.054688 98.960938 C 322.59375 98.960938 321.410156 97.777344 321.410156 96.320312 C 321.410156 94.859375 322.59375 93.675781 324.054688 93.675781 L 329.339844 93.675781 C 330.800781 93.675781 331.984375 94.859375 331.984375 96.320312 C 331.984375 97.777344 330.800781 98.960938 329.339844 98.960938 Z M 329.339844 98.960938 "/><g clip-rule="nonzero" clip-path="url(#9124bd8816)"><path style=" stroke:none;fill-rule:nonzero;fill:#ffffff;fill-opacity:1;" d="M 276.476562 98.960938 L 271.191406 98.960938 C 269.734375 98.960938 268.550781 97.777344 268.550781 96.320312 C 268.550781 94.859375 269.734375 93.675781 271.191406 93.675781 L 276.476562 93.675781 C 277.9375 93.675781 279.121094 94.859375 279.121094 96.320312 C 279.121094 97.777344 277.9375 98.960938 276.476562 98.960938 Z M 276.476562 98.960938 "/></g><path style=" stroke:none;fill-rule:nonzero;fill:#ffffff;fill-opacity:1;" d="M 300.265625 122.75 C 285.691406 122.75 273.835938 110.894531 273.835938 96.320312 C 273.835938 81.746094 285.691406 69.890625 300.265625 69.890625 C 314.839844 69.890625 326.695312 81.746094 326.695312 96.320312 C 326.695312 110.894531 314.839844 122.75 300.265625 122.75 Z M 300.265625 75.175781 C 288.609375 75.175781 279.121094 84.660156 279.121094 96.320312 C 279.121094 107.976562 288.609375 117.464844 300.265625 117.464844 C 311.925781 117.464844 321.410156 107.976562 321.410156 96.320312 C 321.410156 84.660156 311.925781 75.175781 300.265625 75.175781 Z M 300.265625 75.175781 "/><g clip-rule="nonzero" clip-path="url(#9df96c7318)"><path style=" stroke:none;fill-rule:nonzero;fill:#ffffff;fill-opacity:1;" d="M 109.957031 199.765625 L 43.347656 199.765625 C 42.015625 199.765625 41.128906 198.878906 41.128906 197.546875 C 41.128906 196.214844 42.015625 195.328125 43.347656 195.328125 L 109.957031 195.328125 C 111.289062 195.328125 112.179688 196.214844 112.179688 197.546875 C 112.179688 198.878906 111.289062 199.765625 109.957031 199.765625 Z M 109.957031 199.765625 "/></g><path style=" stroke:none;fill-rule:nonzero;fill:#ffffff;fill-opacity:1;" d="M 98.855469 237.511719 L 54.449219 237.511719 C 50.675781 237.511719 47.789062 234.625 47.789062 230.851562 L 47.789062 197.546875 C 47.789062 196.214844 48.675781 195.328125 50.007812 195.328125 L 103.296875 195.328125 C 104.628906 195.328125 105.515625 196.214844 105.515625 197.546875 L 105.515625 230.851562 C 105.515625 234.625 102.632812 237.511719 98.855469 237.511719 Z M 52.230469 199.765625 L 52.230469 230.851562 C 52.230469 232.183594 53.117188 233.074219 54.449219 233.074219 L 98.855469 233.074219 C 100.1875 233.074219 101.078125 232.183594 101.078125 230.851562 L 101.078125 199.765625 Z M 52.230469 199.765625 "/><path style=" stroke:none;fill-rule:nonzero;fill:#ffffff;fill-opacity:1;" d="M 61.109375 255.277344 C 60.890625 255.277344 60.667969 255.277344 60.222656 255.054688 C 59.113281 254.609375 58.445312 253.277344 58.890625 252.167969 L 65.550781 234.40625 C 65.996094 233.292969 67.328125 232.628906 68.4375 233.074219 C 69.546875 233.515625 70.214844 234.847656 69.769531 235.957031 L 63.109375 253.722656 C 62.886719 254.832031 62 255.277344 61.109375 255.277344 Z M 61.109375 255.277344 "/><path style=" stroke:none;fill-rule:nonzero;fill:#ffffff;fill-opacity:1;" d="M 92.195312 255.277344 C 91.308594 255.277344 90.417969 254.832031 90.195312 253.945312 L 83.535156 236.179688 C 83.09375 235.070312 83.757812 233.738281 84.867188 233.292969 C 85.980469 232.851562 87.3125 233.515625 87.753906 234.625 L 94.414062 252.390625 C 94.859375 253.5 94.195312 254.832031 93.082031 255.277344 C 92.640625 255.277344 92.417969 255.277344 92.195312 255.277344 Z M 92.195312 255.277344 "/><path style=" stroke:none;fill-rule:nonzero;fill:#ffffff;fill-opacity:1;" d="M 76.652344 199.765625 C 75.320312 199.765625 74.433594 198.878906 74.433594 197.546875 L 74.433594 190.886719 C 74.433594 189.554688 75.320312 188.664062 76.652344 188.664062 C 77.984375 188.664062 78.875 189.554688 78.875 190.886719 L 78.875 197.546875 C 78.875 198.878906 77.984375 199.765625 76.652344 199.765625 Z M 76.652344 199.765625 "/><path style=" stroke:none;fill-rule:nonzero;fill:#ffffff;fill-opacity:1;" d="M 69.992188 226.410156 C 69.324219 226.410156 68.882812 226.1875 68.4375 225.746094 C 67.550781 224.855469 67.550781 223.523438 68.4375 222.636719 L 82.871094 208.203125 C 83.757812 207.316406 85.089844 207.316406 85.980469 208.203125 C 86.867188 209.09375 86.867188 210.425781 85.980469 211.3125 L 71.546875 225.746094 C 71.101562 226.1875 70.660156 226.410156 69.992188 226.410156 Z M 69.992188 226.410156 "/><path style=" stroke:none;fill-rule:nonzero;fill:#ffffff;fill-opacity:1;" d="M 85.535156 219.75 C 84.203125 219.75 83.3125 218.863281 83.3125 217.53125 L 83.3125 210.867188 L 76.652344 210.867188 C 75.320312 210.867188 74.433594 209.980469 74.433594 208.648438 C 74.433594 207.316406 75.320312 206.429688 76.652344 206.429688 L 85.535156 206.429688 C 86.867188 206.429688 87.753906 207.316406 87.753906 208.648438 L 87.753906 217.53125 C 87.753906 218.863281 86.867188 219.75 85.535156 219.75 Z M 85.535156 219.75 "/></g></svg>