<?xml version='1.0' encoding='utf-8'?>
<svg xmlns="http://www.w3.org/2000/svg" viewBox="0 0 3060 3060"> <path transform="scale(2.9889)" d="m-0-0h1024v1024h-1024v-1024z" fill="#FEFEFE"/> <path transform="scale(2.9889)" d="m174.78 371.29c4.895 4.528 10.286 8.173 15.745 11.969-8.477 4.494-15.297 9.277-21.705 16.541-1.795 2.025-4.425 6.444-6.784 7.53-0.713-0.666-1.38-1.168-1.753-2.093-1.155-2.865 12.297-29.509 14.497-33.947z" fill="#262C62"/> <path transform="scale(2.9889)" d="m326.91 284.84-6.79 28.583c-3.165 3.885-7.467 7.021-11.579 9.858-10.456 7.213-20.939 11.703-32.978 15.469l-0.435-0.678 51.782-53.232z" fill="#F24198"/> <path transform="scale(2.9889)" d="m369.67 183.15c-6.953 9.519-12.682 20.262-17.935 30.798l-5.151 10.456c-0.662 1.31-1.381 3.246-2.26 4.391-0.533 0.695-2.233 1.334-3.06 1.779l-6.303 3.754c-10.121 6.393-20.097 12.87-29.648 20.103-31.462 23.827-59.458 53.46-81.988 85.844l-19.925-5.233-7.343-2.858c5.058-9.559 12.517-18.472 19.072-27.073 40.294-52.867 94.171-94.436 154.54-121.96z" fill="#262C62"/> <path transform="scale(2.9889)" d="m712.97 249.89c-4.152-16.81-13.667-31.576-25.864-43.678-3.012-2.99-7.475-5.724-9.996-8.981 84.664 38.658 150.19 112.02 182.61 198.82 27.625 73.978 30.311 155.11 8.215 230.86-5.271 18.074-12.316 35.922-20.184 53.011-17.822 38.711-44.565 75.63-75.201 105.22 2.683-13.475 2.269-24.796 0.083-38.371l28.665-39.278c48.976-75.254 64.744-166.92 46.052-254.53-14.163-66.382-47.11-126.97-96.89-173.21-11.662-10.833-24.119-21.206-37.487-29.857z" fill="#262C62"/> <path transform="scale(2.9889)" d="m680.86 823.7c-1.254 12.549-4.683 23.283-10.14 34.584-8.627 5.481-19.769 8.919-29.312 12.585-63.245 24.299-137.3 29.806-203.56 15.084-30.188-6.707-59.73-16.716-87.403-30.595-60.517-30.352-113.03-78.847-149.24-135.93-40.679-64.116-59.794-139.01-56.138-214.64 0.949-19.637 3.004-39.309 7.306-58.52 8.007 8.172 15.797 15.545 24.824 22.607-2.134 8.924-2.74 18.714-3.699 27.875-1.409 13.446-1.482 26.818-1.066 40.319 1.819 59.034 19.472 115.79 50.311 166.1 47.318 77.192 125.33 134.12 213.49 155.21 65.472 15.666 137.27 11.964 199.93-13.438l24.848-11.18 12.288-6.233c1.903-1.036 5.529-3.632 7.568-3.826z" fill="#262C62"/> <path transform="scale(2.9889)" d="m712.97 249.89c13.368 8.651 25.825 19.024 37.487 29.857 49.78 46.238 82.727 106.83 96.89 173.21 18.692 87.608 2.924 179.28-46.052 254.53l-28.665 39.278c-1.624-5.61-2.877-11.266-4.825-16.792-3.609-10.242-8.44-19.468-13.78-28.896l17.609-28.021c19.699-34.558 31.7-71.539 37.239-110.86 10.729-76.162-11.018-155.93-56.889-217.3-6.804-9.101-14.203-18.119-22.134-26.261-5.613-5.763-12.686-11.405-17.442-17.831l-0.274-0.382c1.076-7.353 2.473-14.75 2.815-22.183 0.44-9.571-0.703-18.901-1.979-28.36z" fill="#FBDED5"/> <path transform="scale(2.9889)" d="m712.14 300.43 0.274 0.382c4.756 6.426 11.829 12.068 17.442 17.831 7.931 8.142 15.33 17.16 22.134 26.261 45.871 61.364 67.618 141.13 56.889 217.3-5.539 39.317-17.54 76.298-37.239 110.86l-17.609 28.021c-14.15-23.584-33.273-42.279-56.17-57.375-11.143-7.346-22.56-13.541-31.765-23.45-9.091-9.787-14.739-21.783-14.035-35.382 0.665-12.849 8.214-25.348 16.135-35.043 1.812-2.217 3.809-4.963 6.058-6.758 2.687-2.146 6.144-3.568 9.079-5.393 6.239-3.878 12.21-8.329 17.675-13.238 23.049-20.7 38.241-50.387 39.917-81.366 2.142-39.576-20.332-78.003-46.051-106.5 8.076-11.573 13.295-22.553 17.266-36.14z" fill="#F24198"/> <defs> <linearGradient id="a" x1="469.86" x2="409.1" y1="947.53" y2="119.16" gradientUnits="userSpaceOnUse"> <stop stop-color="#000029" offset="0"/> <stop stop-color="#20245B" offset="1"/> </linearGradient> </defs> <path transform="scale(2.9889)" d="m494.68 113.9c5.754-1.276 11.771-1.648 17.639-2.055 33.113-2.293 69.387 6.887 97.337 24.773 19.957 12.772 37.462 30.476 49.591 50.831 2.413 4.049 5.052 8.188 6.84 12.547 1.351 3.295 6.546 6.077 9.382 8.391 2.796 2.282 5.48 4.772 8.003 7.35 24.674 25.214 27.62 63.147 15.057 94.848-3.971 10.02-9.541 17.988-16.465 26.103 25.464 29.334 52.49 65.842 49.752 106.92-1.304 19.574-9.613 39.701-21.216 55.342-4.756 6.413-10.247 12.098-15.855 17.752l-0.236-0.71c5.87-7.789 11.386-15.672 15.615-24.498 7.121-14.859 10.167-33.462 7.927-49.816-2.644-19.298-10.766-36.776-22.546-52.211 1.766 6.232 5.131 12.069 7.098 18.351 5.797 18.519 9.347 39.429 5.24 58.674-2.294 10.75-6.616 20.574-11.943 30.125-6.408 11.49-15.395 22.401-23.727 32.548-17.195 20.942-35.742 43.669-27.526 72.622 5.103 17.983 18.524 30.51 33.537 40.75l20.15 13.157c11.807 8.425 23.512 18.461 32.71 29.683 16.433 20.051 26.039 44.363 28.629 70.066 2.798 27.769-3.544 55.066-16.971 79.471-5.546 10.082-12.245 19.61-19.865 28.226-2.809 3.177-5.536 6.436-8.863 9.089 1.417-2.571 3.316-4.758 4.892-7.223l8.106-13.902c16.13-30.49 24.317-65.101 14.337-99.002-4.733-16.082-12.152-30.549-21.486-44.418 2.203 5.704 4.712 11.192 6.576 17.033 11.622 36.426 12.376 74.826-3.229 110.29-14.261 32.408-37.79 59.349-67.925 77.864-11.813 7.258-24.451 12.912-37.36 17.892l-19.651 6.513c-1.901 0.558-4.706 1.818-6.606 1.432 39.708-14.613 71.555-40.304 89.49-79.132 12.938-28.008 15.676-60.887 4.853-90.091-9.219-24.878-24.823-48.578-44.976-65.997-2.942-2.543-6.36-6.069-9.891-7.657l-0.46-0.172c6.53 6.321 13.17 12.712 18.841 19.837 13.505 16.968 22.612 38.733 28.129 59.57 1.95 5.44 2.477 11.426 3.065 17.139 1.028 9.999 1.855 21.51 0.181 31.488-2.039 0.194-5.665 2.79-7.568 3.826l-12.288 6.233-24.848 11.18c-62.658 25.402-134.46 29.104-199.93 13.438-88.156-21.093-166.17-78.017-213.49-155.21-30.839-50.311-48.492-107.06-50.311-166.1-0.416-13.501-0.343-26.873 1.066-40.319 0.959-9.161 1.565-18.951 3.699-27.875 8.958 6.043 18.269 11.125 27.913 15.977 4.689 2.359 10.43 5.596 15.67 6.196 3.001 0.172 6.027 1.315 8.915 2.087 3.973 1.062 8.13 1.872 12.185 2.56 31.393 5.325 64.228-0.162 90.386-18.842 19.836-14.165 36.221-37.916 40.197-62.219-2.155 5.541-3.982 11.215-6.565 16.582-9.543 19.823-24.1 35.964-43.847 45.921-29.245 14.746-62.591 15.78-93.449 5.553-47.738-15.821-82.384-52.973-104.57-96.961 5.876 6.628 11.569 13.323 17.978 19.456 12.85 12.295 27.127 22.155 43.116 29.925 29.136 14.159 65.761 19.863 96.868 8.958 18.396-6.449 35.358-17.842 48.676-32.065 1.826-1.95 4.589-4.412 5.728-6.782-3.79 2.935-7.219 6.328-11.087 9.168-12.798 9.395-28.698 16.297-44.067 20.183-27.48 6.947-56.843 4.347-83.106-6.219-8.999-3.62-17.259-8.256-25.571-13.2l0.209-0.532c7.847-13.66 22.086-22.609 37.218-25.8 5.948-1.254 12.264-1.058 18.327-1.231l-17.475-6.394c-40.906-18.873-73.011-56.384-88.513-98.325 1.645 1.633 2.888 3.885 4.228 5.795l6.931 9.265c12.607 15.585 29.041 29.429 46.592 39.05 32.054 17.573 68.128 22.647 103.29 12.275 33.503-9.882 58.672-38.1 74.992-67.806l14.933-29.903 0.484-0.86c2.698-7.089 6.562-13.977 9.986-20.749 8.83-17.472 19.096-35.425 31.579-50.571 6.994-8.485 14.881-16.05 22.896-23.555-2.801 0.471-8.397 6.25-10.684 8.331-12.767 11.616-22.939 24.703-32.692 38.911-6.2 9.032-12.35 18.443-17.554 28.092-12.539 23.248-23.74 47.768-40.803 68.132 5.432-20.34 10.344-40.728 17.942-60.419 9.478-24.559 23.11-46.779 39.951-66.945 20.242-24.238 46.29-41.671 76.087-51.935 7.703-2.653 16.034-5.334 24.188-6.075z" fill="url(#a)"/> <path transform="scale(2.9889)" d="m390.18 303.25c0.156 0.25 0.055 0.588 0.055 0.882 0.012 3.92-1.566 8.823-2.202 12.772-1.084 6.738-1.584 13.384-1.723 20.202-0.435 21.346 2.404 42.552 5.391 63.644 2.102 14.835 4.622 29.345 4.133 44.409-0.99 30.564-12.372 60.64-35.086 81.67-23.183 21.463-52.997 29.159-83.875 28.054-1.105-4e-3 -1.65-0.142-2.625-0.662 23.28-0.319 43.737-3.443 64.25-15.302 15.209-8.792 28.839-21.929 37.44-37.343 13.032-23.356 16.192-51.734 14.707-78.049-1.223-21.674-5.269-43.071-6.088-64.793-0.722-19.145 0.62-36.957 5.623-55.484z" fill="#F24198"/> <path transform="scale(2.9889)" d="m635.13 219.25 0.653-7e-3 0.027 0.507c-17.372 19.609-37.879 35.008-61.951 45.519-15.895 6.941-32.713 10.866-49.01 16.582-14.277 5.007-27.716 11.881-40.262 20.319-7.127 4.793-14.065 9.802-19.837 16.21l-0.682 0.253c2.098-4.131 7.395-8.286 10.816-11.527 17.953-17.003 40.04-28.906 62.681-38.517l42.259-16.475c19.633-8.209 39.165-18.985 55.306-32.864z" fill="#FEFEFE"/> <path transform="scale(2.9889)" d="m683.73 430.25c1.755 3.275 0.19 12.75-0.212 16.428-2.028 18.551-8.16 36.524-18.058 52.322-15.146 24.177-39.815 44.384-43.703 74.157-2.076 15.904 1.501 31.314 10.78 44.463 3.16 4.48 6.907 8.465 10.238 12.812l-6.097-4.964-10.471-11.068c-10.823-13.383-18.002-28.367-17.881-45.838 0.109-15.906 5.092-30 14.091-43.062 8.98-13.033 20.779-23.882 31.157-35.75 14.426-16.498 27.699-37.222 30.156-59.5z" fill="#F24198"/> <path transform="scale(2.9889)" d="m632.4 190.69c3.423-0.248 6.594 0.072 9.991 0.493-5.544 9.361-13.169 15.6-21.815 21.901-12.554 9.149-25.549 16.387-39.745 22.665-24.2 10.702-49.706 18.298-73.088 30.94-23.32 12.609-42.828 28.517-59.887 48.82l-4.018 4.74-0.198-0.25 4.453-6.397c12.574-16.48 28.021-31.525 43.659-45.067 28.545-24.721 58.726-45.241 92.886-61.518 14.953-7.125 31.244-14.112 47.762-16.327z" fill="#F24198"/> <path transform="scale(2.9889)" d="m399.69 416.25c0.382 0.067 0.236-8e-3 0.569 0.504 1.14 1.753 1.726 4.164 2.412 6.136l4.042 12.915c3.086 10.733 6.515 21.732 8.3 32.763 2.338 14.451 2.122 30.332-0.75 44.666-5.242 26.164-18.343 50.162-41.029 65.138-32.8 21.654-71.736 21.284-108.78 13.663l-12.461-3.26-0.32-0.525c2.788 0.884 6.222 1.077 9.139 1.507 14.749 2.175 28.315 1.866 43.009-0.69 31.043-5.402 60.095-22.141 78.242-48.293 18.743-27.01 25.592-62.921 22.563-95.314-0.918-9.817-3.206-19.515-4.939-29.21z" fill="#F24198"/> <path transform="scale(2.9889)" d="m522.28 120.22c12.596-0.445 25.739 0.639 38.038 3.403 41.867 9.41 78.524 38.037 101.41 73.983-6.887-4.161-13.759-7.441-21.867-8.354-3.421-0.385-7.001-0.321-10.345-1.155-7.852-1.958-15.442-4.844-23.36-6.663-13.924-3.2-28.405-4.451-42.672-4.523-35.785-0.182-73.544 7.943-104.11 27.136l-8.372 5.982-0.488-0.277c24.206-24.986 52.067-43.758 86.097-52.608 27.494-7.151 62.417-8.706 87.663 6.333l0.705 0.424c-0.778-1.022-1.589-1.78-2.599-2.564-5.715-4.435-12.615-8.226-18.893-11.806-31.915-18.198-70.172-31.071-107.39-26.007-1.167 0.159-2.172 0.237-3.349 0.233 1.59-1.034 4.373-1.041 6.25-1.349 7.754-1.272 15.439-1.853 23.283-2.188z" fill="#F24198"/> <path transform="scale(2.9889)" d="m177.2 468.88c8.958 6.043 18.269 11.125 27.913 15.977 4.689 2.359 10.43 5.596 15.67 6.196-19.287 14.926-31.305 39.962-34.254 63.952-2.354 19.152-0.465 39.839 7.111 57.651-0.282-4.419-1.384-8.527-1.962-12.881-1.25-9.414-1.143-20.467 0.698-29.77 4.031-20.365 16.761-40.418 33.905-52.197 6.573-4.516 15.136-9.981 22.937-12.061-4.483 3.602-9.712 6.108-14.183 9.844-16.704 13.957-27.178 34.378-29.37 55.963-2.74 26.986 6.335 52.801 23.478 73.567 2.522 3.056 7.298 8.986 10.905 10.257-15.937-18.296-25.924-43.499-24.147-67.957 0.882-12.135 4.294-22.648 9.472-33.582-1.283 5.822-2.394 11.421-2.645 17.401-0.96 22.803 7.584 47.569 19.741 66.569 13.735 21.465 32.612 37.758 54.498 50.458-0.768 2.001-1.831 4.499-3.159 6.211-4.199 6.202-7.323 12.856-10.445 19.647 1.648 1.84 3.368 3.759 4.787 5.786 0.722 1.032 0.902 1.797 1.968 2.593 0.445 2.83 4.483 6.553 6.405 8.701 12.322 13.768 26.251 26.237 41.196 37.103 62.146 45.189 145.94 65.095 221.85 53.067 31.143-4.936 60.772-14.15 88.823-28.648 10.074-5.207 20.131-10.848 29.232-17.65 1.95 5.44 2.477 11.426 3.065 17.139 1.028 9.999 1.855 21.51 0.181 31.488-2.039 0.194-5.665 2.79-7.568 3.826l-12.288 6.233-24.848 11.18c-62.658 25.402-134.46 29.104-199.93 13.438-88.156-21.093-166.17-78.017-213.49-155.21-30.839-50.311-48.492-107.06-50.311-166.1-0.416-13.501-0.343-26.873 1.066-40.319 0.959-9.161 1.565-18.951 3.699-27.875z" fill="#FBDED5"/> <path transform="scale(2.9889)" d="m283.36 714.12c-12.147-13.417-19.907-30.964-28.406-46.708 6.59 6.002 13.102 12.091 20.497 17.109 5.773 3.917 12.062 6.974 18.354 9.952-4.199 6.202-7.323 12.856-10.445 19.647z" fill="#F24198"/> <path transform="scale(2.9889)" d="m296.97 688.26c3.13-5.817 7.191-11.2 11.284-16.371 8.927-11.279 18.967-21.43 30.985-29.419 7.846-5.216 15.882-9.926 24.542-13.669 6.778-2.93 13.846-5.241 20.487-8.478 32.949-16.058 48.884-47.98 55.919-82.351 5.694-27.82 6.831-57.099 6.533-85.434l-0.492-15.2-1.036-12.053c-0.062-0.654-0.56-3.112-0.366-3.649 0.525-1.452 3.59-3.839 4.653-5.316 1.136 15.732 6.88 29.623 13.584 43.758 10.225 21.557 22.729 41.087 37.817 59.579 8.314 10.19 17.484 20.348 27.43 28.991 10.342 8.987 20.1 17.522 34.054 19.465-7.918 25.067-15.121 51.432-10.4 77.885 1.861 10.428 5.743 20.903 10.29 30.454 0.282-1.909-0.802-4.302-1.251-6.204l-1.785-9.123c-1.914-11.222-2.791-22.266-3.025-33.638 5.889 3.055 11.148 5.813 15.542 10.894 7.794 9.014 13.365 20.482 19.519 30.65 2.781 4.595 6.063 8.973 9.372 13.197 5.569 7.109 11.579 13.581 18.234 19.686 4.481 4.111 9.723 7.951 13.522 12.685 1.656 2.063 2.663 4.547 3.441 7.057l0.762 2.842 0.233 0.9c3.236 13.273 0.12 29.25-7.131 40.682-7.754 12.225-18.812 19.97-32.98 23.003-28.036 6.001-59.624-9.223-82.53-24.19-18.277-11.943-35.733-26.706-51.676-41.611-12.128-11.338-23.159-23.993-35.862-34.674-21.152-17.785-51.231-30.972-79.237-25.076-20.113 4.234-33.885 19.709-44.549 36.318l-12.732 22.647c-1.066-0.796-1.246-1.561-1.968-2.593-1.419-2.027-3.139-3.946-4.787-5.786 3.122-6.791 6.246-13.445 10.445-19.647 1.328-1.712 2.391-4.21 3.159-6.211z" fill="#FEFEFE"/> <path transform="scale(2.9889)" d="m489.71 615.12c5.327 8.036 9.18 17.334 14.088 25.71 13.318 22.732 29.524 42.971 48.566 61.128l-2.725-1.341c-6.814-3.569-13.242-9.123-18.729-14.464-20.374-19.837-32.848-44.072-41.2-71.033z" fill="#060739"/> <path transform="scale(2.9889)" d="m658.36 370.43c0.137 10.794 4.104 20.54 3.009 31.665-1.176 11.95-5.743 23.407-10.877 34.138-6.048 12.639-12.669 24.589-20.461 36.231l-14.191 20.198c-4.521 6.843-7.795 16.201-14.336 21.316-7.243 5.663-16.581 7.484-25.578 6.185-24.465-3.532-48.622-15.226-69.422-28.181-23.006-14.328-43.025-33.568-52.452-59.57-2.027-5.59-3.211-11.414-4.556-17.189-4.139 1.922-8.375 2.556-12.903 2.351-8.079-0.367-15.599-7.286-20.709-12.964-9.658-10.73-19.278-27.193-18.342-42.189 0.243-3.89 1.804-8.031 4.836-10.585 2.834-2.388 6.044-2.736 9.593-2.285 2.519 0.32 5.314 1.881 7.49 3.163 8.511 5.013 16.26 12.723 22.135 20.596l0.326 0.445c0.048-40.618 37.827-72.216 72.928-85.667 11.438-4.383 23.59-7.052 35.37-10.364 10.56-2.969 21.289-6.71 31.284-11.233 11.619-5.258 23.552-11.854 33.72-19.592 8.401-6.392 15.974-14.017 23.108-21.764 2.555 3.194 4.55 7.064 6.584 10.611 13.326 23.243 18.187 49.135 20.583 75.534-2.207-2.326-4.24-4.922-7.547-5.598-3.82-0.781-8.021 0.52-11.689 1.553l-15.292 4.64c-3.829 1.23-8.699 2.303-11.953 4.644-2.217 1.596-3.151 4.405-3.604 6.992-0.311 1.774-0.713 3.474 0.34 4.96 3.239-0.645 6.312-2.236 9.314-3.575l16.723-7.721c4.457-2.137 9.073-4.701 13.963-5.659 1.747-0.342 3.777-0.443 5.246 0.725 1.671 1.33 3.508 4.059 3.651 6.229 0.473 7.177-0.944 14.886-5.881 20.281l-0.487-0.5c1.122-1.757 1.7-3.255 2.274-5.25l-0.553-0.458-0.864 0.627 0.311 0.831c-0.683 1.431-1.233 1.95-2.447 2.891l-0.598-0.391c0.657-0.965 1.507-1.797 1.572-2.975-1.194 0.054-2.378 1.785-3.224 2.681l-0.414-0.456c1.568-2.011 3.159-3.941 4.278-6.25l-0.364-0.426c-0.688 1.054-1.211 1.923-2.32 2.587-0.737 0.442-1.251 0.745-1.913 1.281-0.66 0.534-0.733 0.664-1.594 0.808 0.445-1.633 0.998-2.818 1.883-4.264l0.302-0.486-0.447-0.25-2.125 2.79c-2.272 0.568-4.315 2.871-6.058 4.398 0.272-0.785 0.501-1.312 1.023-1.975 0.851-1.08 1.925-1.922 1.854-3.347l-1.937-0.114-1.374 1.541c-0.412 1.237-0.853 1.409-2.011 2-2.515 1.283-6.631 1.126-9.478 1.707-8.796 1.794-17.796 9.458-21.203 17.836l-2.297 7.169c1.759-1.495 2.789-4.4 3.73-6.482l1.339 5.216 1.626-0.427c0.941 0.64 1.631 1.111 2.687 1.554 2.322-0.511 5.148-0.201 7.541-0.199-1.428-1.73-2.585-4.319-4.693-5.162-0.531-0.213-1.035-0.153-1.035-0.755 1.676 0.099 2.783 0.091 3.75 1.75l0.375 0.875c0.449 0.694 1.425 1.568 2.25 1.75h1.75l0.383-0.414c0.966-0.966-0.057 0.034 1.367-0.836l0.875-0.875 3e-3 -0.748 0.497-0.502c1.096-1.591 0.858-2.997 2.5-4.5 1.359 0.018 1.633 0.337 2.75 1l0.75 0.377 1.253-1.252-0.498-0.625 0.061-0.664 0.059-2.211-0.62-0.375 0.069-0.562c0.091-0.93 0.065-0.596-0.074-1.688l-0.495-0.5-0.252-0.625-1.25-1.25c-0.176-0.958-0.321-1.17-3e-3 -2.125 1.072-0.198 1.668-0.336 2.719 0.056 0.803 0.299 1.837 0.594 2.656 0.819l0.828 0.094c1.1 0.157 1.603 0.486 2.547 1.031 0.939 0.542 1.421 0.845 2.497 1.002 0.684 0.501 2.003 1.342 2.5 2 0.348 0.461 0.062 0.776 0.605 1.318 0.625 0.626 0.302 0.31 0.773 1.305l0.313 0.578c0.537 1.182 1.034 4.002 0.687 5.295l-0.375 0.752 0.503-0.125 0.187-0.445c0.336-0.672 0.739-0.972 1.31-1.43l3e-3 -0.748c0.524-0.919 1.034-1.488 1.752-2.252 0.221-1.115 0.304-1.602 1.37-2.248l0.872-0.377c0.582 1.013 0.622 1.49 0.748 2.625l-0.232 0.547c-0.529 1.337-0.559 2.04-0.268 3.453l-0.5 0.75-0.123 3-0.372 0.5-5e-3 0.75c-0.045 1.75-0.162 2.791 0.255 4.5l0.061 1.859c0.021 1.219 0.171 1.884 0.436 3.016 0.157 0.668 0.135 1.3 0.123 1.974l-0.764 0.33z" fill="#FEFEFE"/> <path transform="scale(2.9889)" d="m586.6 412.75 0.584 0.029c2.068 0.221 2.861 0.841 4.071 2.414l-0.5 0.768-5.905 0.761c-1.345 0.603-2.661 1.254-4.095 1.615l-0.251-1.087c1.576-2.448 3.26-3.766 6.096-4.5z" fill="#262C62"/> <path transform="scale(2.9889)" d="m608.42 401.25c0.389 0.305 0.545 0.381 0.83 0.865 1.511 2.563 1.78 7.06 1.15 9.885-1.046 4.698-8.361 7.689-12.15 9.944-0.827 0.284-0.447 0.31-1.142 0.056 3.028-4.209 8.181-6.577 10.844-11.081 1.866-3.156 1.441-6.325 0.468-9.669z" fill="#060739"/> <path transform="scale(2.9889)" d="m608.47 339.75 0.336 0.172-3.392 12.578c-1.458 6.756-1.446 13.958-1.613 20.858-1.938-6.388-2.295-13.952-0.671-20.427l0.247-0.931c1.136-4.373 2.889-8.318 5.093-12.25z" fill="#060739"/> <path transform="scale(2.9889)" d="m494.28 337.83c-0.999-2.265-2.287-4.635-2.94-7.015 2.498 2.223 6.389 4.916 8.166 7.669-1.558 0.696-3.052 0.977-3.76 2.598-1.479 0.691-2.011 0.659-3.497 0.223-0.542 0.43-0.875 0.601-1.5 0.858-1.247-0.391-1.925-0.973-2.92-1.785 0.657-0.302 0.656-0.517 1.019-1.117l1.151 0.127 0.319-0.388-2.788-6.498c0.837 0.54 1.469 0.969 2.159 1.698 1.421 1.499 2.54 3.172 4.591 3.63z" fill="#262C62"/> <path transform="scale(2.9889)" d="m645.54 332.04-10.044 0.401c-10.101 1.128-15.983 7.107-21.982 14.664 1.425-4.302 3.687-7.408 7.131-10.294 7.973-6.682 16.312-7.128 26.269-6.312l-1.374 1.541z" fill="#010117"/> <path transform="scale(2.9889)" d="m627.48 360.42c-1.428-1.73-2.585-4.319-4.693-5.162-0.531-0.213-1.035-0.153-1.035-0.755 1.676 0.099 2.783 0.091 3.75 1.75l0.375 0.875c0.449 0.694 1.425 1.568 2.25 1.75h1.75l0.383-0.414c0.966-0.966-0.057 0.034 1.367-0.836l0.875-0.875 3e-3 -0.748 0.497-0.502c1.096-1.591 0.858-2.997 2.5-4.5 1.359 0.018 1.633 0.337 2.75 1l0.75 0.377 1.253-1.252-0.498-0.625 0.061-0.664 0.059-2.211-0.62-0.375 0.069-0.562c0.091-0.93 0.065-0.596-0.074-1.688l-0.495-0.5-0.252-0.625-1.25-1.25c-0.176-0.958-0.321-1.17-3e-3 -2.125 1.072-0.198 1.668-0.336 2.719 0.056 0.803 0.299 1.837 0.594 2.656 0.819l0.828 0.094c1.1 0.157 1.603 0.486 2.547 1.031 0.939 0.542 1.421 0.845 2.497 1.002 0.684 0.501 2.003 1.342 2.5 2 0.348 0.461 0.062 0.776 0.605 1.318 0.625 0.626 0.302 0.31 0.773 1.305l0.313 0.578c0.537 1.182 1.034 4.002 0.687 5.295l-0.375 0.752 0.503-0.125 0.187-0.445c0.336-0.672 0.739-0.972 1.31-1.43l3e-3 -0.748c0.524-0.919 1.034-1.488 1.752-2.252 0.221-1.115 0.304-1.602 1.37-2.248l0.872-0.377c0.582 1.013 0.622 1.49 0.748 2.625l-0.232 0.547c-0.529 1.337-0.559 2.04-0.268 3.453l-0.5 0.75-0.123 3-0.372 0.5-5e-3 0.75c-0.045 1.75-0.162 2.791 0.255 4.5l0.061 1.859c0.021 1.219 0.171 1.884 0.436 3.016 0.157 0.668 0.135 1.3 0.123 1.974l-0.764 0.33-0.088-0.071c-1.059-7.591-0.915-14.117 0.577-21.618-2.984 3.667-4.742 8.003-7.954 11.448 0.83-2.601 1.775-5.164 1.597-7.938-0.175-2.711-1.574-5.481-3.738-7.161-2.528-1.962-7.381-4.009-10.584-3.443l0.71 1.104c1.516 2.111 1.345 3.712 1.84 6.196 0.457 2.294 0.963 4.576 0.579 6.921-0.628 3.839-2.27 7.498-5.498 9.799l-2.701 1.882c5.572 0.021 9.912-0.355 14.904-3.076 2.269-1.237 4.23-2.63 6.754-3.345-2.673 2.82-6.484 6.09-10.004 7.771-8.381 4.003-22.392-0.12-30.5-3.06 1.894-0.592 5.009 0.621 6.916 1.145l-1.569-1.612c-1.923-1.924-2.941-3.341-3.973-5.882l1.626-0.427c0.941 0.64 1.631 1.111 2.687 1.554 2.322-0.511 5.148-0.201 7.541-0.199z" fill="#060739"/> <path transform="scale(2.9889)" d="m627.48 360.42c2.609-0.622 4.331-1.195 5.864-3.527 0.65-0.989 1.023-2.105 1.449-3.199 0.261-0.67 0.49-1.078 0.959-1.616 1.458 0.467 1.71 0.528 2.697 1.675 0.29 3.239-0.106 5.149-2.197 7.747-1.392 1.73-3.24 2.875-5.461 3.072-4.699 0.419-7.213-1.235-10.852-3.953 2.322-0.511 5.148-0.201 7.541-0.199z" fill="#F24198"/> <path transform="scale(2.9889)" d="m550.27 456.98-4.174-2.894c8.319-0.119 15.898-2.196 23.607-5.248 5.438-2.153 11.651-5.971 17.543-5.962 2.083 3e-3 3.909 0.283 5.819 1.123 0.653 0.287 2.296 1.317 2.899 1.377 0.169 0.016 1.799-0.881 2.005-0.98 2.443-1.169 4.591-2.519 7.368-1.785 5.31 1.404 8.532 7.583 11.131 11.97l3.013-0.85c-0.308 1.053-0.788 1.329-1.735 1.813l-2.633 1.103-11.367 1.784c-3.736 0.728-7.671 2.131-11.5 2.011-3.357-0.105-6.946-1.426-10.25-2.114-8.971-1.869-19.125-0.861-28.321-1.432-0.965 0.246-2.385 0.074-3.405 0.084z" fill="#E50487"/> <path transform="scale(2.9889)" d="m616.47 454.58 3.013-0.85c-0.308 1.053-0.788 1.329-1.735 1.813l-2.633 1.103-11.367 1.784c-3.736 0.728-7.671 2.131-11.5 2.011-3.357-0.105-6.946-1.426-10.25-2.114-8.971-1.869-19.125-0.861-28.321-1.432l0.102-0.382c1.583-0.794 4.564-0.394 6.377-0.394l15.342-0.255c0.483-0.01 3.07 0.115 3.25-0.021 0.677-0.51 0.314-1.151 1.312-1.538l0.907 1.441c0.661 0.199 1.124 0.281 1.811 0.152 2.583-0.486 4.449 0.243 6.97 0.54 2.924 0.344 5.508 0.046 8.299-0.835 3.49-1.101 6.951-0.498 10.557-0.435 2.628 0.046 5.262-0.268 7.866-0.588z" fill="#060739"/> <path transform="scale(2.9889)" d="m553.68 456.9c9.196 0.571 19.35-0.437 28.321 1.432 3.304 0.688 6.893 2.009 10.25 2.114 3.829 0.12 7.764-1.283 11.5-2.011l11.367-1.784-4.886 9.969c-2.689 4.602-6.668 9.243-12.019 10.591l-0.715 0.17c-3.791 0.94-8.172 1.009-12.034 0.434l-0.713-0.115c-13.795-2.153-24.79-11.196-34.476-20.716 1.02-0.01 2.44 0.162 3.405-0.084z" fill="#F24198"/> <path transform="scale(2.9889)" d="m509.01 295.61c4.934-0.535 10.042 0.082 14.933 0.733 11.214 1.491 22.28 4.269 33.056 7.682 5.076 1.608 11.633 3.261 14.169 8.354 1.819 3.652 3.003 7.878 1.738 11.872-0.385 0.058-0.779 0.272-1.157 0.175-2.667-0.685-6.195-3.1-8.831-4.289-10.637-4.796-21.033-9.792-32.059-13.679l-2.914-0.964c-6.914-2.041-14.177-3.595-21.424-2.938-4.241 0.384-9.011 2.763-12.835 4.533-5.178 2.397-10.505 4.763-15.456 7.591l-13.596 8.288c6.1-7.637 14.197-12.522 22.472-17.459 5.349-3.191 10.626-6.481 16.542-8.542l5.362-1.357z" fill="#060739"/> <path transform="scale(2.9889)" d="m499.51 338.48 1.266-0.4c-0.798-1.743-1.848-2.925-3.133-4.334l0.11-0.797 1.12-0.703c-0.236-1.106-0.876-2.255-1.844-2.879l-0.378-0.192 1.602-0.828c0.905 1.053 0.347 0.187 0.68 1.28 0.639 2.097 5.289 6.025 6.892 7.868-1.197-3.272-2.397-5.711-2.102-9.249l0.03-1.743 0.624-0.257 2.126 2.648c1.74-1.1 3.223-0.148 4.489-1.648l0.214-4.073 0.664-0.155 1.232 3.728c1.61 0.512 2.489-0.029 4.084-0.5l0.34-0.824c0.482-1.147 0.268-0.695 0.853-1.748l1.241 2.165 0.511-0.068c9.087-1.1 19.239 0.499 26.59 6.276 3.96 3.113 7.017 6.985 8.232 11.918-5.204-7.704-11.027-12.48-20.416-14.351-3.742-0.745-7.489-0.666-11.284-0.565l-0.388 0.447c0.303 0.339 1.317 1.718 1.645 1.843 0.769 0.29 2.566 0.219 3.451 0.306 2.526 0.25 5.124 0.651 7.583 1.276 11.206 2.849 17.581 11.156 21.177 21.648 0.666 1.945 1.639 4.086 1.896 6.122-4.581-4.701-7.016-11.12-11.76-15.492-2.568-2.367-5.503-3.816-8.672-5.176l0.353 0.628c1.945 3.558 3.215 8.162 2.142 12.222-1.42 5.372-6.654 9.127-11.162 11.739l16.272-0.018c-8.191 2.764-16.271 3.765-24.812 2.086l-0.826-0.148c-11.976-2.247-26.494-12.501-33.186-22.633-1.784-2.701-3.091-5.521-4.214-8.551 1.584 1.431 4.081 3.161 5.081 5.026 0.995 0.812 1.673 1.394 2.92 1.785 0.625-0.257 0.958-0.428 1.5-0.858 1.486 0.436 2.018 0.468 3.497-0.223 0.708-1.621 2.202-1.902 3.76-2.598z" fill="#060739"/> <path transform="scale(2.9889)" d="m531.52 352.98c0.61-2.491 1.384-5.372 2.979-7.424l0.877 0.197c1.567 2.493 1.748 4.267 1.487 7.172-1.767-0.161-3.629-0.502-5.343 0.055z" fill="#262C62"/> <path transform="scale(2.9889)" d="m511.7 342.25c0.528 1.132-0.327 3.546-0.484 4.855-0.757 6.306 2.274 10.468 5.933 15.149l-6.354-3.967c-3.254-2.463-5.894-5.681-8.378-8.885 2.957-2.69 5.747-5.205 9.283-7.152z" fill="#FEFEFE"/> <path transform="scale(2.9889)" d="m536.86 352.92-1.951 4.578c-1.129 2.027-3.385 4.271-5.723 4.816-3.519 0.82-7.722-0.158-10.6-2.265-3.23-2.364-3.413-5.761-3.976-9.392l4.327 5.615c2.063 0.298 4.225 0.381 6.309 0.268 2.48-0.133 4.411-1.299 5.963-3.179l0.308-0.386c1.714-0.557 3.576-0.216 5.343-0.055z" fill="#F24198"/> <path transform="scale(2.9889)" d="m460.79 378.18 6.158 1.949c12.04 4.344 22.501 14.308 30.051 24.389 2.479 3.309 5.118 6.911 6.821 10.698l4.634 10.293c3.729 10.974 5.305 22.252 3.444 33.792l-4.629-3.01c-4.345-2.86-8.048-6.375-11.742-10.01-12.955-12.749-23.302-29.69-29.39-46.828-2.475-6.969-3.847-14.059-5.347-21.273z" fill="#FBDED5"/> </svg>