<svg xmlns="http://www.w3.org/2000/svg" xmlns:xlink="http://www.w3.org/1999/xlink" width="600" zoomAndPan="magnify" viewBox="0 0 450 449.999984" height="600" preserveAspectRatio="xMidYMid meet" version="1.2"><defs><clipPath id="c8c3d45722"><path d="M 349.914062 234 L 364 234 L 364 248.707031 L 349.914062 248.707031 Z M 349.914062 234 "/></clipPath><clipPath id="f7af7b2bfd"><path d="M 385 234 L 399.414062 234 L 399.414062 248.707031 L 385 248.707031 Z M 385 234 "/></clipPath><clipPath id="3bc3ce3f85"><path d="M 349.914062 199.207031 L 364 199.207031 L 364 214 L 349.914062 214 Z M 349.914062 199.207031 "/></clipPath><clipPath id="fa31e51b43"><path d="M 385 199.207031 L 399.414062 199.207031 L 399.414062 214 L 385 214 Z M 385 199.207031 "/></clipPath><clipPath id="dd71e1fbc2"><path d="M 59 198.015625 L 91 198.015625 L 91 228 L 59 228 Z M 59 198.015625 "/></clipPath><clipPath id="1e9185473f"><path d="M 50.070312 237 L 100.320312 237 L 100.320312 248.265625 L 50.070312 248.265625 Z M 50.070312 237 "/></clipPath><clipPath id="f7a7be5a29"><path d="M 128.351562 67.078125 L 177.851562 67.078125 L 177.851562 116.578125 L 128.351562 116.578125 Z M 128.351562 67.078125 "/></clipPath><clipPath id="3f7fb0b4c7"><path d="M 312 67.078125 L 335.722656 67.078125 L 335.722656 91 L 312 91 Z M 312 67.078125 "/></clipPath><clipPath id="09b2d2ce74"><path d="M 286.222656 101 L 325 101 L 325 109 L 286.222656 109 Z M 286.222656 101 "/></clipPath><clipPath id="8363d6bf7a"><path d="M 286.222656 71 L 325 71 L 325 116.578125 L 286.222656 116.578125 Z M 286.222656 71 "/></clipPath><clipPath id="2a7f3ab982"><path d="M 156 359 L 178.601562 359 L 178.601562 381.71875 L 156 381.71875 Z M 156 359 "/></clipPath><clipPath id="caa4b0a18d"><path d="M 128.351562 331.46875 L 163 331.46875 L 163 377 L 128.351562 377 Z M 128.351562 331.46875 "/></clipPath><clipPath id="4e8e7f1514"><path d="M 284 332.269531 L 328.21875 332.269531 L 328.21875 377 L 284 377 Z M 284 332.269531 "/></clipPath></defs><g id="23afd371d4"><path style=" stroke:none;fill-rule:evenodd;fill:#e1eaf9;fill-opacity:0.9882;" d="M 296.941406 90.398438 C 224.648438 48.675781 132.210938 73.433594 90.472656 145.699219 C 48.738281 217.964844 73.503906 310.371094 145.796875 352.09375 C 218.089844 393.8125 310.527344 369.054688 352.265625 296.789062 C 394 224.523438 369.234375 132.121094 296.941406 90.398438 Z M 78.347656 138.703125 C 123.953125 59.742188 224.953125 32.691406 303.941406 78.277344 C 382.929688 123.863281 409.992188 224.828125 364.386719 303.789062 C 318.785156 382.746094 217.78125 409.800781 138.792969 364.214844 C 59.808594 318.625 32.746094 217.660156 78.347656 138.703125 Z M 78.347656 138.703125 "/><path style=" stroke:none;fill-rule:nonzero;fill:#7779ec;fill-opacity:1;" d="M 122.832031 144.675781 C 150.945312 160.902344 186.898438 151.273438 203.128906 123.167969 C 219.363281 95.0625 209.730469 59.125 181.613281 42.898438 C 153.5 26.671875 117.546875 36.300781 101.316406 64.40625 C 85.082031 92.511719 94.714844 128.449219 122.832031 144.675781 Z M 122.832031 144.675781 "/><path style=" stroke:none;fill-rule:nonzero;fill:#ffffff;fill-opacity:0.4;" d="M 122.832031 144.675781 C 150.945312 160.902344 186.898438 151.273438 203.128906 123.167969 C 219.363281 95.0625 209.730469 59.125 181.613281 42.898438 C 153.5 26.671875 117.546875 36.300781 101.316406 64.40625 C 85.082031 92.511719 94.714844 128.449219 122.832031 144.675781 Z M 122.832031 144.675781 "/><path style=" stroke:none;fill-rule:nonzero;fill:#403491;fill-opacity:1;" d="M 344.5 275.992188 C 372.617188 292.21875 408.566406 282.589844 424.800781 254.484375 C 441.03125 226.378906 431.398438 190.441406 403.285156 174.214844 C 375.167969 157.988281 339.214844 167.617188 322.984375 195.722656 C 306.753906 223.828125 316.382812 259.765625 344.5 275.992188 Z M 344.5 275.992188 "/><path style=" stroke:none;fill-rule:nonzero;fill:#7779ec;fill-opacity:1;" d="M 276.238281 144.820312 C 304.351562 161.046875 340.304688 151.417969 356.535156 123.3125 C 372.769531 95.207031 363.136719 59.269531 335.019531 43.042969 C 306.902344 26.816406 270.953125 36.445312 254.722656 64.550781 C 238.488281 92.65625 248.121094 128.59375 276.238281 144.820312 Z M 276.238281 144.820312 "/><path style=" stroke:none;fill-rule:nonzero;fill:#f1ba40;fill-opacity:1;" d="M 276.238281 407.164062 C 304.351562 423.390625 340.304688 413.757812 356.535156 385.652344 C 372.769531 357.550781 363.136719 321.609375 335.019531 305.382812 C 306.902344 289.15625 270.953125 298.789062 254.722656 326.894531 C 238.488281 354.996094 248.121094 390.9375 276.238281 407.164062 Z M 276.238281 407.164062 "/><path style=" stroke:none;fill-rule:nonzero;fill:#eb4026;fill-opacity:1;" d="M 46.984375 276.003906 C 75.097656 292.230469 111.050781 282.597656 127.28125 254.492188 C 143.515625 226.386719 133.882812 190.449219 105.765625 174.222656 C 77.648438 157.996094 41.699219 167.628906 25.464844 195.734375 C 9.234375 223.839844 18.867188 259.777344 46.984375 276.003906 Z M 46.984375 276.003906 "/><path style=" stroke:none;fill-rule:nonzero;fill:#ef8534;fill-opacity:1;" d="M 123.023438 407.164062 C 151.136719 423.390625 187.089844 413.757812 203.320312 385.652344 C 219.554688 357.550781 209.921875 321.609375 181.804688 305.382812 C 153.6875 289.15625 117.738281 298.789062 101.503906 326.894531 C 85.273438 354.996094 94.90625 390.9375 123.023438 407.164062 Z M 123.023438 407.164062 "/><path style=" stroke:none;fill-rule:nonzero;fill:#ffffff;fill-opacity:1;" d="M 363.835938 228.597656 L 363.835938 230.144531 C 363.835938 231.847656 365.226562 233.238281 366.929688 233.238281 L 382.398438 233.238281 C 384.097656 233.238281 385.492188 231.847656 385.492188 230.144531 L 385.492188 228.597656 C 385.492188 224.269531 382.859375 220.554688 379.304688 218.855469 C 380.230469 217.769531 380.851562 216.378906 380.851562 214.675781 C 380.851562 211.273438 378.066406 208.488281 374.664062 208.488281 C 371.257812 208.488281 368.476562 211.273438 368.476562 214.675781 C 368.476562 216.222656 369.09375 217.769531 370.023438 218.855469 C 366.464844 220.554688 363.835938 224.269531 363.835938 228.597656 Z M 371.570312 214.675781 C 371.570312 212.976562 372.960938 211.582031 374.664062 211.582031 C 376.363281 211.582031 377.757812 212.976562 377.757812 214.675781 C 377.757812 216.378906 376.363281 217.769531 374.664062 217.769531 C 372.960938 217.769531 371.570312 216.378906 371.570312 214.675781 Z M 374.664062 220.863281 C 378.992188 220.863281 382.398438 224.269531 382.398438 228.597656 L 382.398438 230.144531 L 366.929688 230.144531 L 366.929688 228.597656 C 366.929688 224.269531 370.332031 220.863281 374.664062 220.863281 Z M 374.664062 220.863281 "/><g clip-rule="nonzero" clip-path="url(#c8c3d45722)"><path style=" stroke:none;fill-rule:nonzero;fill:#ffffff;fill-opacity:1;" d="M 355.328125 248.707031 C 358.265625 248.707031 360.742188 246.234375 360.742188 243.292969 C 360.742188 242.367188 360.433594 241.4375 360.121094 240.664062 L 363.371094 237.417969 C 363.988281 236.796875 363.988281 235.871094 363.371094 235.25 C 362.75 234.632812 361.824219 234.632812 361.203125 235.25 L 357.957031 238.5 C 357.183594 238.191406 356.253906 237.878906 355.328125 237.878906 C 352.386719 237.878906 349.914062 240.355469 349.914062 243.292969 C 349.914062 246.234375 352.386719 248.707031 355.328125 248.707031 Z M 355.328125 240.972656 C 356.566406 240.972656 357.648438 242.058594 357.648438 243.292969 C 357.648438 244.53125 356.566406 245.613281 355.328125 245.613281 C 354.089844 245.613281 353.007812 244.53125 353.007812 243.292969 C 353.007812 242.058594 354.089844 240.972656 355.328125 240.972656 Z M 355.328125 240.972656 "/></g><g clip-rule="nonzero" clip-path="url(#f7af7b2bfd)"><path style=" stroke:none;fill-rule:nonzero;fill:#ffffff;fill-opacity:1;" d="M 394 237.878906 C 393.070312 237.878906 392.140625 238.191406 391.367188 238.5 L 388.121094 235.25 C 387.5 234.632812 386.574219 234.632812 385.953125 235.25 C 385.335938 235.871094 385.335938 236.796875 385.953125 237.417969 L 389.203125 240.664062 C 388.738281 241.4375 388.585938 242.367188 388.585938 243.292969 C 388.585938 246.234375 391.058594 248.707031 394 248.707031 C 396.9375 248.707031 399.414062 246.234375 399.414062 243.292969 C 399.414062 240.355469 396.9375 237.878906 394 237.878906 Z M 394 245.613281 C 392.761719 245.613281 391.679688 244.53125 391.679688 243.292969 C 391.679688 242.058594 392.761719 240.972656 394 240.972656 C 395.234375 240.972656 396.320312 242.058594 396.320312 243.292969 C 396.320312 244.53125 395.234375 245.613281 394 245.613281 Z M 394 245.613281 "/></g><g clip-rule="nonzero" clip-path="url(#3bc3ce3f85)"><path style=" stroke:none;fill-rule:nonzero;fill:#ffffff;fill-opacity:1;" d="M 355.328125 199.207031 C 352.386719 199.207031 349.914062 201.683594 349.914062 204.621094 C 349.914062 207.5625 352.386719 210.035156 355.328125 210.035156 C 356.253906 210.035156 357.183594 209.726562 357.957031 209.417969 L 361.203125 212.667969 C 361.515625 212.976562 361.824219 213.128906 362.289062 213.128906 C 362.75 213.128906 363.0625 212.976562 363.371094 212.667969 C 363.988281 212.046875 363.988281 211.121094 363.371094 210.5 L 360.121094 207.253906 C 360.433594 206.480469 360.742188 205.550781 360.742188 204.621094 C 360.742188 201.683594 358.265625 199.207031 355.328125 199.207031 Z M 353.007812 204.621094 C 353.007812 203.386719 354.089844 202.300781 355.328125 202.300781 C 356.566406 202.300781 357.648438 203.386719 357.648438 204.621094 C 357.648438 205.859375 356.566406 206.941406 355.328125 206.941406 C 354.089844 206.941406 353.007812 205.859375 353.007812 204.621094 Z M 353.007812 204.621094 "/></g><g clip-rule="nonzero" clip-path="url(#fa31e51b43)"><path style=" stroke:none;fill-rule:nonzero;fill:#ffffff;fill-opacity:1;" d="M 394 199.207031 C 391.058594 199.207031 388.585938 201.683594 388.585938 204.621094 C 388.585938 205.550781 388.894531 206.480469 389.203125 207.253906 L 385.953125 210.5 C 385.335938 211.121094 385.335938 212.046875 385.953125 212.667969 C 386.265625 212.976562 386.574219 213.128906 387.039062 213.128906 C 387.5 213.128906 387.8125 212.976562 388.121094 212.667969 L 391.367188 209.417969 C 392.140625 209.726562 393.070312 210.035156 394 210.035156 C 396.9375 210.035156 399.414062 207.5625 399.414062 204.621094 C 399.414062 201.683594 396.9375 199.207031 394 199.207031 Z M 394 206.941406 C 392.761719 206.941406 391.679688 205.859375 391.679688 204.621094 C 391.679688 203.386719 392.761719 202.300781 394 202.300781 C 395.234375 202.300781 396.320312 203.386719 396.320312 204.621094 C 396.320312 205.859375 395.234375 206.941406 394 206.941406 Z M 394 206.941406 "/></g><g clip-rule="nonzero" clip-path="url(#dd71e1fbc2)"><path style=" stroke:none;fill-rule:nonzero;fill:#ffffff;fill-opacity:1;" d="M 83.964844 227.914062 C 83.648438 227.914062 83.492188 227.914062 83.179688 227.757812 L 75.195312 223.53125 L 67.214844 227.757812 C 66.742188 228.074219 66.117188 227.914062 65.492188 227.601562 C 65.023438 227.289062 64.707031 226.664062 64.863281 226.039062 L 66.429688 217.269531 L 60.011719 211.007812 C 59.542969 210.539062 59.386719 209.914062 59.542969 209.445312 C 59.699219 208.816406 60.167969 208.503906 60.796875 208.347656 L 69.71875 207.097656 L 73.632812 199.113281 C 74.101562 198.015625 75.980469 198.015625 76.449219 199.113281 L 80.363281 207.097656 L 89.285156 208.347656 C 89.910156 208.503906 90.382812 208.816406 90.539062 209.445312 C 90.695312 210.070312 90.539062 210.695312 90.066406 211.007812 L 83.648438 217.269531 L 85.214844 226.039062 C 85.371094 226.664062 85.058594 227.289062 84.589844 227.601562 C 84.589844 227.757812 84.277344 227.914062 83.964844 227.914062 Z M 75.195312 220.246094 C 75.511719 220.246094 75.667969 220.246094 75.980469 220.402344 L 81.929688 223.53125 L 80.675781 216.957031 C 80.519531 216.488281 80.832031 215.863281 81.144531 215.550781 L 85.839844 211.007812 L 79.265625 210.070312 C 78.796875 210.070312 78.328125 209.601562 78.015625 209.289062 L 75.195312 203.183594 L 72.222656 209.132812 C 72.066406 209.601562 71.597656 209.914062 70.96875 209.914062 L 64.550781 211.007812 L 69.25 215.550781 C 69.5625 215.863281 69.71875 216.488281 69.71875 216.957031 L 68.621094 223.53125 L 74.570312 220.402344 C 74.726562 220.246094 74.882812 220.246094 75.195312 220.246094 Z M 75.195312 220.246094 "/></g><g clip-rule="nonzero" clip-path="url(#1e9185473f)"><path style=" stroke:none;fill-rule:nonzero;fill:#ffffff;fill-opacity:1;" d="M 98.679688 248.265625 L 51.714844 248.265625 C 50.777344 248.265625 50.148438 247.640625 50.148438 246.699219 L 50.148438 242.003906 C 50.148438 239.34375 52.183594 237.308594 54.847656 237.308594 L 95.546875 237.308594 C 98.207031 237.308594 100.242188 239.34375 100.242188 242.003906 L 100.242188 246.699219 C 100.242188 247.640625 99.617188 248.265625 98.679688 248.265625 Z M 53.28125 245.136719 L 97.113281 245.136719 L 97.113281 242.003906 C 97.113281 241.066406 96.488281 240.4375 95.546875 240.4375 L 54.847656 240.4375 C 53.90625 240.4375 53.28125 241.066406 53.28125 242.003906 Z M 53.28125 245.136719 "/></g><path style=" stroke:none;fill-rule:nonzero;fill:#ffffff;fill-opacity:1;" d="M 92.417969 240.4375 L 57.976562 240.4375 C 57.039062 240.4375 56.410156 239.8125 56.410156 238.875 L 56.410156 231.046875 C 56.410156 228.386719 58.445312 226.351562 61.109375 226.351562 L 89.285156 226.351562 C 91.945312 226.351562 93.980469 228.386719 93.980469 231.046875 L 93.980469 238.875 C 93.980469 239.8125 93.355469 240.4375 92.417969 240.4375 Z M 59.542969 237.308594 L 90.851562 237.308594 L 90.851562 231.046875 C 90.851562 230.109375 90.226562 229.480469 89.285156 229.480469 L 61.109375 229.480469 C 60.167969 229.480469 59.542969 230.109375 59.542969 231.046875 Z M 59.542969 237.308594 "/><g clip-rule="nonzero" clip-path="url(#f7a7be5a29)"><path style=" stroke:none;fill-rule:nonzero;fill:#ffffff;fill-opacity:1;" d="M 177.042969 112.96875 L 164.785156 100.707031 C 167.683594 97.164062 169.429688 92.640625 169.429688 87.71875 C 169.429688 76.394531 160.214844 67.179688 148.890625 67.179688 C 137.566406 67.179688 128.351562 76.394531 128.351562 87.71875 C 128.351562 99.042969 137.566406 108.257812 148.890625 108.257812 C 153.8125 108.257812 158.335938 106.511719 161.878906 103.613281 L 174.140625 115.871094 C 174.539062 116.273438 175.066406 116.472656 175.589844 116.472656 C 176.117188 116.472656 176.644531 116.273438 177.042969 115.871094 C 177.847656 115.070312 177.847656 113.769531 177.042969 112.96875 Z M 132.457031 87.71875 C 132.457031 78.660156 139.832031 71.289062 148.890625 71.289062 C 157.949219 71.289062 165.320312 78.660156 165.320312 87.71875 C 165.320312 96.777344 157.949219 104.148438 148.890625 104.148438 C 139.832031 104.148438 132.457031 96.777344 132.457031 87.71875 Z M 132.457031 87.71875 "/></g><g clip-rule="nonzero" clip-path="url(#3f7fb0b4c7)"><path style=" stroke:none;fill-rule:nonzero;fill:#ffffff;fill-opacity:1;" d="M 327.988281 90.28125 L 315.613281 90.28125 C 313.914062 90.28125 312.519531 88.886719 312.519531 87.1875 L 312.519531 83.628906 C 312.519531 83.007812 312.832031 82.546875 313.292969 82.234375 C 313.757812 81.925781 314.378906 81.925781 314.839844 82.234375 C 315.152344 82.546875 315.304688 82.546875 315.613281 82.546875 C 316.542969 82.546875 317.160156 81.925781 317.160156 81 C 317.160156 80.070312 316.542969 79.453125 315.613281 79.453125 C 315.304688 79.453125 315.152344 79.453125 314.839844 79.605469 C 314.378906 79.914062 313.757812 79.914062 313.292969 79.605469 C 312.832031 79.453125 312.519531 78.832031 312.519531 78.367188 L 312.519531 74.8125 C 312.519531 73.109375 313.914062 71.71875 315.613281 71.71875 L 317.160156 71.71875 C 317.160156 69.085938 319.171875 67.078125 321.800781 67.078125 C 324.433594 67.078125 326.441406 69.085938 326.441406 71.71875 L 327.988281 71.71875 C 329.691406 71.71875 331.082031 73.109375 331.082031 74.8125 L 331.082031 76.359375 C 333.714844 76.359375 335.722656 78.367188 335.722656 81 C 335.722656 83.628906 333.714844 85.640625 331.082031 85.640625 L 331.082031 87.1875 C 331.082031 88.886719 329.691406 90.28125 327.988281 90.28125 Z M 315.613281 85.640625 L 315.613281 87.1875 L 327.988281 87.1875 L 327.988281 83.628906 C 327.988281 83.007812 328.300781 82.546875 328.761719 82.234375 C 329.226562 81.925781 329.847656 81.925781 330.308594 82.234375 C 330.621094 82.546875 330.773438 82.546875 331.082031 82.546875 C 332.011719 82.546875 332.628906 81.925781 332.628906 81 C 332.628906 80.070312 332.011719 79.453125 331.082031 79.453125 C 330.773438 79.453125 330.621094 79.453125 330.308594 79.605469 C 329.847656 79.914062 329.226562 79.914062 328.761719 79.605469 C 328.300781 79.453125 327.988281 78.832031 327.988281 78.367188 L 327.988281 74.8125 L 324.433594 74.8125 C 323.8125 74.8125 323.347656 74.5 323.039062 74.039062 C 322.730469 73.574219 322.730469 72.953125 323.039062 72.492188 C 323.347656 72.179688 323.347656 72.027344 323.347656 71.71875 C 323.347656 70.789062 322.730469 70.171875 321.800781 70.171875 C 320.875 70.171875 320.253906 70.789062 320.253906 71.71875 C 320.253906 72.027344 320.253906 72.179688 320.410156 72.492188 C 320.71875 72.953125 320.71875 73.574219 320.410156 74.039062 C 320.253906 74.5 319.636719 74.8125 319.171875 74.8125 L 315.613281 74.8125 L 315.613281 76.359375 C 318.246094 76.359375 320.253906 78.367188 320.253906 81 C 320.253906 83.628906 318.246094 85.640625 315.613281 85.640625 Z M 315.613281 85.640625 "/></g><g clip-rule="nonzero" clip-path="url(#09b2d2ce74)"><path style=" stroke:none;fill-rule:nonzero;fill:#ffffff;fill-opacity:1;" d="M 309.273438 108.84375 L 301.691406 108.84375 C 300.144531 108.84375 298.753906 108.070312 297.824219 106.832031 L 296.589844 104.976562 C 296.433594 104.511719 295.96875 104.203125 295.351562 104.203125 L 287.769531 104.203125 C 286.84375 104.203125 286.222656 103.582031 286.222656 102.65625 C 286.222656 101.726562 286.84375 101.109375 287.769531 101.109375 L 295.351562 101.109375 C 296.898438 101.109375 298.289062 101.882812 299.21875 103.117188 L 300.457031 104.976562 C 300.765625 105.4375 301.230469 105.59375 301.691406 105.59375 L 309.273438 105.59375 C 309.738281 105.59375 310.199219 105.285156 310.511719 104.976562 L 311.746094 103.117188 C 312.675781 101.882812 314.066406 101.109375 315.613281 101.109375 L 323.347656 101.109375 C 324.277344 101.109375 324.894531 101.726562 324.894531 102.65625 C 324.894531 103.582031 324.277344 104.203125 323.347656 104.203125 L 315.769531 104.203125 C 315.304688 104.203125 314.839844 104.511719 314.53125 104.820312 L 313.292969 106.675781 C 312.367188 108.070312 310.820312 108.84375 309.273438 108.84375 Z M 309.273438 108.84375 "/></g><g clip-rule="nonzero" clip-path="url(#8363d6bf7a)"><path style=" stroke:none;fill-rule:nonzero;fill:#ffffff;fill-opacity:1;" d="M 320.253906 116.578125 L 290.863281 116.578125 C 288.234375 116.578125 286.222656 114.566406 286.222656 111.9375 L 286.222656 76.359375 C 286.222656 73.726562 288.234375 71.71875 290.863281 71.71875 L 307.878906 71.71875 C 308.808594 71.71875 309.425781 72.335938 309.425781 73.265625 C 309.425781 74.191406 308.808594 74.8125 307.878906 74.8125 L 290.863281 74.8125 C 289.9375 74.8125 289.316406 75.429688 289.316406 76.359375 L 289.316406 111.9375 C 289.316406 112.863281 289.9375 113.484375 290.863281 113.484375 L 320.253906 113.484375 C 321.183594 113.484375 321.800781 112.863281 321.800781 111.9375 L 321.800781 94.921875 C 321.800781 93.992188 322.421875 93.375 323.347656 93.375 C 324.277344 93.375 324.894531 93.992188 324.894531 94.921875 L 324.894531 111.9375 C 324.894531 114.566406 322.886719 116.578125 320.253906 116.578125 Z M 320.253906 116.578125 "/></g><g clip-rule="nonzero" clip-path="url(#2a7f3ab982)"><path style=" stroke:none;fill-rule:nonzero;fill:#ffffff;fill-opacity:1;" d="M 173.589844 374.597656 C 174.6875 373.03125 175.3125 371.152344 175.3125 369.117188 C 175.3125 363.953125 171.085938 359.726562 165.921875 359.726562 C 160.753906 359.726562 156.527344 363.953125 156.527344 369.117188 C 156.527344 374.285156 160.753906 378.511719 165.921875 378.511719 C 167.957031 378.511719 169.835938 377.882812 171.398438 376.789062 L 175.78125 381.171875 C 176.097656 381.484375 176.566406 381.640625 176.878906 381.640625 C 177.191406 381.640625 177.660156 381.484375 177.972656 381.171875 C 178.601562 380.546875 178.601562 379.605469 177.972656 378.980469 Z M 159.660156 369.117188 C 159.660156 365.671875 162.476562 362.855469 165.921875 362.855469 C 169.363281 362.855469 172.183594 365.671875 172.183594 369.117188 C 172.183594 372.5625 169.363281 375.378906 165.921875 375.378906 C 162.476562 375.378906 159.660156 372.5625 159.660156 369.117188 Z M 159.660156 369.117188 "/></g><g clip-rule="nonzero" clip-path="url(#caa4b0a18d)"><path style=" stroke:none;fill-rule:nonzero;fill:#ffffff;fill-opacity:1;" d="M 133.046875 376.945312 L 153.398438 376.945312 C 154.335938 376.945312 154.960938 376.320312 154.960938 375.378906 C 154.960938 374.441406 154.335938 373.8125 153.398438 373.8125 L 133.046875 373.8125 C 132.109375 373.8125 131.480469 373.1875 131.480469 372.25 L 131.480469 347.203125 L 139.308594 347.203125 C 141.96875 347.203125 144.003906 345.167969 144.003906 342.503906 L 144.003906 334.679688 L 158.09375 334.679688 C 159.03125 334.679688 159.660156 335.304688 159.660156 336.242188 L 159.660156 355.027344 C 159.660156 355.96875 160.285156 356.59375 161.222656 356.59375 C 162.164062 356.59375 162.789062 355.96875 162.789062 355.027344 L 162.789062 336.242188 C 162.789062 333.582031 160.753906 331.546875 158.09375 331.546875 L 143.691406 331.546875 C 142.4375 331.546875 141.34375 332.015625 140.40625 332.957031 L 129.757812 343.601562 C 128.820312 344.539062 128.351562 345.636719 128.351562 346.886719 L 128.351562 372.25 C 128.351562 374.910156 130.386719 376.945312 133.046875 376.945312 Z M 140.875 336.871094 L 140.875 342.503906 C 140.875 343.445312 140.246094 344.070312 139.308594 344.070312 L 133.671875 344.070312 Z M 140.875 336.871094 "/></g><g clip-rule="nonzero" clip-path="url(#4e8e7f1514)"><path style=" stroke:none;fill-rule:nonzero;fill:#ffffff;fill-opacity:1;" d="M 301.617188 376.644531 C 299.480469 376.644531 297.464844 375.808594 295.953125 374.296875 L 286.421875 364.765625 C 284.910156 363.25 284.074219 361.238281 284.074219 359.101562 C 284.074219 356.960938 284.910156 354.949219 286.421875 353.433594 L 303.765625 336.089844 C 306.035156 333.820312 309.054688 332.570312 312.265625 332.570312 L 322.136719 332.570312 C 325.453125 332.570312 328.148438 335.265625 328.148438 338.582031 L 328.148438 348.453125 C 328.148438 351.667969 326.898438 354.683594 324.625 356.953125 L 307.285156 374.296875 C 305.773438 375.808594 303.761719 376.644531 301.617188 376.644531 Z M 305.871094 372.878906 L 305.890625 372.878906 Z M 312.265625 336.578125 C 310.125 336.578125 308.109375 337.410156 306.597656 338.925781 L 289.257812 356.265625 C 288.5 357.023438 288.082031 358.027344 288.082031 359.101562 C 288.082031 360.171875 288.5 361.175781 289.257812 361.933594 L 298.785156 371.460938 C 300.300781 372.976562 302.9375 372.976562 304.453125 371.460938 L 321.792969 354.121094 C 323.308594 352.609375 324.140625 350.597656 324.140625 348.453125 L 324.140625 338.582031 C 324.140625 337.476562 323.242188 336.578125 322.136719 336.578125 Z M 312.265625 336.578125 "/></g><path style=" stroke:none;fill-rule:nonzero;fill:#ffffff;fill-opacity:1;" d="M 289.746094 380.648438 C 288.1875 380.648438 286.648438 380.042969 285.488281 378.890625 L 281.828125 375.226562 C 279.90625 373.304688 279.515625 370.320312 280.875 367.96875 L 284.84375 361.117188 C 285.394531 360.15625 286.625 359.828125 287.578125 360.386719 C 288.535156 360.941406 288.863281 362.167969 288.308594 363.121094 L 284.34375 369.972656 C 283.890625 370.757812 284.019531 371.753906 284.660156 372.394531 L 288.324219 376.054688 C 288.960938 376.695312 289.957031 376.824219 290.742188 376.375 L 297.613281 372.40625 C 298.570312 371.851562 299.796875 372.183594 300.347656 373.136719 C 300.902344 374.097656 300.574219 375.320312 299.617188 375.875 L 292.746094 379.84375 C 291.808594 380.382812 290.773438 380.648438 289.746094 380.648438 Z M 289.746094 380.648438 "/><path style=" stroke:none;fill-rule:nonzero;fill:#ffffff;fill-opacity:1;" d="M 313.625 380.320312 C 312.597656 380.320312 311.574219 379.929688 310.792969 379.148438 L 305.195312 373.550781 L 308.027344 370.71875 L 313.625 376.316406 L 320.066406 369.875 C 322.40625 367.53125 322.40625 363.71875 320.066406 361.375 L 318.71875 360.03125 L 321.550781 357.199219 L 322.898438 358.542969 C 326.800781 362.449219 326.800781 368.800781 322.898438 372.707031 L 316.457031 379.148438 C 315.675781 379.929688 314.648438 380.320312 313.625 380.320312 Z M 313.625 380.320312 "/><path style=" stroke:none;fill-rule:nonzero;fill:#ffffff;fill-opacity:1;" d="M 287.167969 355.523438 L 281.570312 349.925781 C 280.007812 348.363281 280.007812 345.824219 281.570312 344.261719 L 288.011719 337.824219 C 289.902344 335.929688 292.417969 334.890625 295.09375 334.890625 C 297.769531 334.890625 300.285156 335.929688 302.175781 337.824219 L 303.519531 339.167969 L 300.6875 342 L 299.34375 340.65625 C 297 338.3125 293.1875 338.3125 290.84375 340.65625 L 284.402344 347.09375 L 290 352.691406 Z M 287.167969 355.523438 "/><path style=" stroke:none;fill-rule:nonzero;fill:#ffffff;fill-opacity:1;" d="M 313.125 354.605469 C 309.257812 354.605469 306.113281 351.460938 306.113281 347.59375 C 306.113281 343.730469 309.257812 340.585938 313.125 340.585938 C 316.988281 340.585938 320.132812 343.730469 320.132812 347.59375 C 320.132812 351.460938 316.988281 354.605469 313.125 354.605469 Z M 313.125 344.589844 C 311.464844 344.589844 310.117188 345.9375 310.117188 347.59375 C 310.117188 349.253906 311.464844 350.601562 313.125 350.601562 C 314.78125 350.601562 316.128906 349.253906 316.128906 347.59375 C 316.128906 345.9375 314.78125 344.589844 313.125 344.589844 Z M 313.125 344.589844 "/></g></svg>