<svg xmlns="http://www.w3.org/2000/svg" viewBox="0 0 100 100" width="100" height="100">
  <!-- Volunteer Icon -->
  <circle cx="50" cy="50" r="48" fill="#3273DC" opacity="0.1" />
  
  <!-- Helping Hands -->
  <path d="M25 50 C25 40 30 30 40 30 C50 30 50 40 50 50" fill="none" stroke="#3273DC" stroke-width="4" stroke-linecap="round" />
  <path d="M75 50 C75 40 70 30 60 30 C50 30 50 40 50 50" fill="none" stroke="#3273DC" stroke-width="4" stroke-linecap="round" />
  
  <!-- Heart Symbol -->
  <path d="M50 75 C40 65 30 60 30 50 C30 45 35 40 40 45 C45 50 50 55 50 55 C50 55 55 50 60 45 C65 40 70 45 70 50 C70 60 60 65 50 75 Z" fill="#FF5995" opacity="0.8" />
  <path d="M50 75 C40 65 30 60 30 50 C30 45 35 40 40 45 C45 50 50 55 50 55 C50 55 55 50 60 45 C65 40 70 45 70 50 C70 60 60 65 50 75 Z" fill="none" stroke="#FF5995" stroke-width="2" />
  
  <!-- People Silhouettes -->
  <circle cx="30" cy="25" r="5" fill="#3273DC" />
  <circle cx="70" cy="25" r="5" fill="#3273DC" />
</svg>